<mxfile host="app.diagrams.net" agent="Mozilla/5.0 (Macintosh; Intel Mac OS X 10.15; rv:138.0) Gecko/20100101 Firefox/138.0" version="27.0.5">
  <diagram name="Page-1" id="M3UlzSxxT0mN9Tt4AKU8">
    <mxGraphModel dx="4845" dy="3685" grid="1" gridSize="10" guides="1" tooltips="1" connect="1" arrows="1" fold="1" page="1" pageScale="1" pageWidth="3200" pageHeight="2000" math="0" shadow="0">
      <root>
        <mxCell id="0" />
        <mxCell id="1" parent="0" />
        <mxCell id="65Ibzihye3PbVpg7L_qn-14" value="Festival" style="whiteSpace=wrap;html=1;align=center;" parent="1" vertex="1">
          <mxGeometry x="265" y="1030" width="100" height="40" as="geometry" />
        </mxCell>
        <mxCell id="65Ibzihye3PbVpg7L_qn-16" value="Ending_date" style="ellipse;whiteSpace=wrap;html=1;align=center;" parent="1" vertex="1">
          <mxGeometry x="435" y="1120" width="90" height="40" as="geometry" />
        </mxCell>
        <mxCell id="65Ibzihye3PbVpg7L_qn-24" value="" style="endArrow=none;html=1;rounded=0;" parent="1" source="65Ibzihye3PbVpg7L_qn-16" target="65Ibzihye3PbVpg7L_qn-14" edge="1">
          <mxGeometry width="50" height="50" relative="1" as="geometry">
            <mxPoint x="455" y="835" as="sourcePoint" />
            <mxPoint x="505" y="785" as="targetPoint" />
          </mxGeometry>
        </mxCell>
        <mxCell id="65Ibzihye3PbVpg7L_qn-25" value="&lt;div&gt;Year&lt;/div&gt;" style="ellipse;whiteSpace=wrap;html=1;align=center;" parent="1" vertex="1">
          <mxGeometry x="270" y="1120" width="90" height="40" as="geometry" />
        </mxCell>
        <mxCell id="65Ibzihye3PbVpg7L_qn-26" value="" style="endArrow=none;html=1;rounded=0;" parent="1" source="65Ibzihye3PbVpg7L_qn-25" target="65Ibzihye3PbVpg7L_qn-14" edge="1">
          <mxGeometry width="50" height="50" relative="1" as="geometry">
            <mxPoint x="445" y="765" as="sourcePoint" />
            <mxPoint x="465" y="685" as="targetPoint" />
          </mxGeometry>
        </mxCell>
        <mxCell id="65Ibzihye3PbVpg7L_qn-35" value="Location" style="whiteSpace=wrap;html=1;align=center;" parent="1" vertex="1">
          <mxGeometry x="265" y="830" width="100" height="40" as="geometry" />
        </mxCell>
        <mxCell id="65Ibzihye3PbVpg7L_qn-37" value="hosted" style="shape=rhombus;perimeter=rhombusPerimeter;whiteSpace=wrap;html=1;align=center;" parent="1" vertex="1">
          <mxGeometry x="270" y="920" width="90" height="60" as="geometry" />
        </mxCell>
        <mxCell id="65Ibzihye3PbVpg7L_qn-38" value="" style="fontSize=12;html=1;endArrow=ERmany;rounded=0;" parent="1" source="65Ibzihye3PbVpg7L_qn-37" target="65Ibzihye3PbVpg7L_qn-14" edge="1">
          <mxGeometry width="100" height="100" relative="1" as="geometry">
            <mxPoint x="525" y="995" as="sourcePoint" />
            <mxPoint x="625" y="895" as="targetPoint" />
          </mxGeometry>
        </mxCell>
        <mxCell id="65Ibzihye3PbVpg7L_qn-39" value="" style="endArrow=none;html=1;rounded=0;" parent="1" source="65Ibzihye3PbVpg7L_qn-37" target="65Ibzihye3PbVpg7L_qn-35" edge="1">
          <mxGeometry relative="1" as="geometry">
            <mxPoint x="495" y="905" as="sourcePoint" />
            <mxPoint x="655" y="905" as="targetPoint" />
          </mxGeometry>
        </mxCell>
        <mxCell id="65Ibzihye3PbVpg7L_qn-40" value="Address" style="ellipse;whiteSpace=wrap;html=1;align=center;" parent="1" vertex="1">
          <mxGeometry x="85" y="830" width="100" height="40" as="geometry" />
        </mxCell>
        <mxCell id="65Ibzihye3PbVpg7L_qn-41" value="latitude" style="ellipse;whiteSpace=wrap;html=1;align=center;" parent="1" vertex="1">
          <mxGeometry x="210" y="720" width="100" height="40" as="geometry" />
        </mxCell>
        <mxCell id="65Ibzihye3PbVpg7L_qn-42" value="City" style="ellipse;whiteSpace=wrap;html=1;align=center;rotation=0;" parent="1" vertex="1">
          <mxGeometry x="85" y="720" width="100" height="40" as="geometry" />
        </mxCell>
        <mxCell id="65Ibzihye3PbVpg7L_qn-44" value="" style="endArrow=none;html=1;rounded=0;" parent="1" source="65Ibzihye3PbVpg7L_qn-35" target="65Ibzihye3PbVpg7L_qn-42" edge="1">
          <mxGeometry width="50" height="50" relative="1" as="geometry">
            <mxPoint x="385" y="870" as="sourcePoint" />
            <mxPoint x="435" y="820" as="targetPoint" />
          </mxGeometry>
        </mxCell>
        <mxCell id="65Ibzihye3PbVpg7L_qn-45" value="" style="endArrow=none;html=1;rounded=0;" parent="1" source="65Ibzihye3PbVpg7L_qn-35" target="65Ibzihye3PbVpg7L_qn-41" edge="1">
          <mxGeometry width="50" height="50" relative="1" as="geometry">
            <mxPoint x="295" y="790" as="sourcePoint" />
            <mxPoint x="345" y="740" as="targetPoint" />
          </mxGeometry>
        </mxCell>
        <mxCell id="65Ibzihye3PbVpg7L_qn-46" value="" style="endArrow=none;html=1;rounded=0;" parent="1" source="65Ibzihye3PbVpg7L_qn-35" target="65Ibzihye3PbVpg7L_qn-40" edge="1">
          <mxGeometry width="50" height="50" relative="1" as="geometry">
            <mxPoint x="145" y="800" as="sourcePoint" />
            <mxPoint x="195" y="750" as="targetPoint" />
          </mxGeometry>
        </mxCell>
        <mxCell id="65Ibzihye3PbVpg7L_qn-47" value="Country" style="ellipse;whiteSpace=wrap;html=1;align=center;" parent="1" vertex="1">
          <mxGeometry x="435" y="720" width="100" height="40" as="geometry" />
        </mxCell>
        <mxCell id="65Ibzihye3PbVpg7L_qn-48" value="" style="endArrow=none;html=1;rounded=0;" parent="1" source="65Ibzihye3PbVpg7L_qn-35" target="65Ibzihye3PbVpg7L_qn-47" edge="1">
          <mxGeometry width="50" height="50" relative="1" as="geometry">
            <mxPoint x="340" y="970" as="sourcePoint" />
            <mxPoint x="245" y="920" as="targetPoint" />
          </mxGeometry>
        </mxCell>
        <mxCell id="65Ibzihye3PbVpg7L_qn-52" value="conducted" style="shape=rhombus;perimeter=rhombusPerimeter;whiteSpace=wrap;html=1;align=center;" parent="1" vertex="1">
          <mxGeometry x="705" y="1020" width="120" height="60" as="geometry" />
        </mxCell>
        <mxCell id="65Ibzihye3PbVpg7L_qn-53" value="" style="endArrow=none;html=1;rounded=0;" parent="1" source="65Ibzihye3PbVpg7L_qn-14" target="65Ibzihye3PbVpg7L_qn-52" edge="1">
          <mxGeometry relative="1" as="geometry">
            <mxPoint x="545" y="905" as="sourcePoint" />
            <mxPoint x="705" y="905" as="targetPoint" />
          </mxGeometry>
        </mxCell>
        <mxCell id="65Ibzihye3PbVpg7L_qn-54" value="event" style="whiteSpace=wrap;html=1;align=center;" parent="1" vertex="1">
          <mxGeometry x="1105" y="1030" width="100" height="40" as="geometry" />
        </mxCell>
        <mxCell id="65Ibzihye3PbVpg7L_qn-55" value="" style="edgeStyle=entityRelationEdgeStyle;fontSize=12;html=1;endArrow=ERoneToMany;rounded=0;" parent="1" source="65Ibzihye3PbVpg7L_qn-52" target="65Ibzihye3PbVpg7L_qn-54" edge="1">
          <mxGeometry width="100" height="100" relative="1" as="geometry">
            <mxPoint x="765" y="1030" as="sourcePoint" />
            <mxPoint x="865" y="930" as="targetPoint" />
          </mxGeometry>
        </mxCell>
        <mxCell id="65Ibzihye3PbVpg7L_qn-56" value="building" style="whiteSpace=wrap;html=1;align=center;" parent="1" vertex="1">
          <mxGeometry x="1105" y="1520" width="100" height="40" as="geometry" />
        </mxCell>
        <mxCell id="65Ibzihye3PbVpg7L_qn-57" value="performance" style="whiteSpace=wrap;html=1;align=center;" parent="1" vertex="1">
          <mxGeometry x="1875" y="1030" width="100" height="40" as="geometry" />
        </mxCell>
        <mxCell id="65Ibzihye3PbVpg7L_qn-59" value="features" style="shape=rhombus;perimeter=rhombusPerimeter;whiteSpace=wrap;html=1;align=center;" parent="1" vertex="1">
          <mxGeometry x="1475" y="1020" width="120" height="60" as="geometry" />
        </mxCell>
        <mxCell id="65Ibzihye3PbVpg7L_qn-60" value="" style="edgeStyle=entityRelationEdgeStyle;fontSize=12;html=1;endArrow=ERoneToMany;rounded=0;" parent="1" source="65Ibzihye3PbVpg7L_qn-59" target="65Ibzihye3PbVpg7L_qn-57" edge="1">
          <mxGeometry width="100" height="100" relative="1" as="geometry">
            <mxPoint x="1735" y="1050" as="sourcePoint" />
            <mxPoint x="1705" y="1230" as="targetPoint" />
          </mxGeometry>
        </mxCell>
        <mxCell id="65Ibzihye3PbVpg7L_qn-61" value="" style="endArrow=none;html=1;rounded=0;" parent="1" source="65Ibzihye3PbVpg7L_qn-54" target="65Ibzihye3PbVpg7L_qn-59" edge="1">
          <mxGeometry relative="1" as="geometry">
            <mxPoint x="1175" y="1160" as="sourcePoint" />
            <mxPoint x="1335" y="1160" as="targetPoint" />
          </mxGeometry>
        </mxCell>
        <mxCell id="65Ibzihye3PbVpg7L_qn-66" value="takes place" style="shape=rhombus;perimeter=rhombusPerimeter;whiteSpace=wrap;html=1;align=center;" parent="1" vertex="1">
          <mxGeometry x="1095" y="1240" width="120" height="60" as="geometry" />
        </mxCell>
        <mxCell id="65Ibzihye3PbVpg7L_qn-67" value="" style="endArrow=none;html=1;rounded=0;" parent="1" source="65Ibzihye3PbVpg7L_qn-66" target="65Ibzihye3PbVpg7L_qn-56" edge="1">
          <mxGeometry relative="1" as="geometry">
            <mxPoint x="1135" y="1420" as="sourcePoint" />
            <mxPoint x="1295" y="1420" as="targetPoint" />
          </mxGeometry>
        </mxCell>
        <mxCell id="65Ibzihye3PbVpg7L_qn-68" value="" style="fontSize=12;html=1;endArrow=ERoneToMany;rounded=0;" parent="1" source="65Ibzihye3PbVpg7L_qn-66" target="65Ibzihye3PbVpg7L_qn-54" edge="1">
          <mxGeometry width="100" height="100" relative="1" as="geometry">
            <mxPoint x="895" y="1311.5600000000004" as="sourcePoint" />
            <mxPoint x="1081.7" y="1110" as="targetPoint" />
          </mxGeometry>
        </mxCell>
        <mxCell id="65Ibzihye3PbVpg7L_qn-70" value="name" style="ellipse;whiteSpace=wrap;html=1;align=center;" parent="1" vertex="1">
          <mxGeometry x="1315" y="1560" width="100" height="40" as="geometry" />
        </mxCell>
        <mxCell id="65Ibzihye3PbVpg7L_qn-71" value="description" style="ellipse;whiteSpace=wrap;html=1;align=center;" parent="1" vertex="1">
          <mxGeometry x="965" y="1440" width="100" height="40" as="geometry" />
        </mxCell>
        <mxCell id="65Ibzihye3PbVpg7L_qn-72" value="capacity" style="ellipse;whiteSpace=wrap;html=1;align=center;" parent="1" vertex="1">
          <mxGeometry x="965" y="1600" width="100" height="40" as="geometry" />
        </mxCell>
        <mxCell id="65Ibzihye3PbVpg7L_qn-73" value="" style="endArrow=none;html=1;rounded=0;" parent="1" source="65Ibzihye3PbVpg7L_qn-71" target="65Ibzihye3PbVpg7L_qn-56" edge="1">
          <mxGeometry width="50" height="50" relative="1" as="geometry">
            <mxPoint x="1205" y="1630" as="sourcePoint" />
            <mxPoint x="1255" y="1580" as="targetPoint" />
          </mxGeometry>
        </mxCell>
        <mxCell id="65Ibzihye3PbVpg7L_qn-75" value="" style="endArrow=none;html=1;rounded=0;" parent="1" source="65Ibzihye3PbVpg7L_qn-72" target="65Ibzihye3PbVpg7L_qn-56" edge="1">
          <mxGeometry width="50" height="50" relative="1" as="geometry">
            <mxPoint x="1105" y="1630" as="sourcePoint" />
            <mxPoint x="1155" y="1580" as="targetPoint" />
          </mxGeometry>
        </mxCell>
        <mxCell id="65Ibzihye3PbVpg7L_qn-76" value="" style="endArrow=none;html=1;rounded=0;" parent="1" source="65Ibzihye3PbVpg7L_qn-56" target="65Ibzihye3PbVpg7L_qn-70" edge="1">
          <mxGeometry width="50" height="50" relative="1" as="geometry">
            <mxPoint x="1245" y="1602" as="sourcePoint" />
            <mxPoint x="1311" y="1570" as="targetPoint" />
          </mxGeometry>
        </mxCell>
        <mxCell id="65Ibzihye3PbVpg7L_qn-77" value="equipment" style="shape=ext;margin=3;double=1;whiteSpace=wrap;html=1;align=center;" parent="1" vertex="1">
          <mxGeometry x="1105" y="1760" width="100" height="40" as="geometry" />
        </mxCell>
        <mxCell id="65Ibzihye3PbVpg7L_qn-78" value="needs" style="shape=rhombus;double=1;perimeter=rhombusPerimeter;whiteSpace=wrap;html=1;align=center;" parent="1" vertex="1">
          <mxGeometry x="1095" y="1630" width="120" height="60" as="geometry" />
        </mxCell>
        <mxCell id="65Ibzihye3PbVpg7L_qn-81" value="" style="endArrow=none;html=1;rounded=0;" parent="1" source="65Ibzihye3PbVpg7L_qn-87" target="65Ibzihye3PbVpg7L_qn-77" edge="1">
          <mxGeometry width="50" height="50" relative="1" as="geometry">
            <mxPoint x="1034.9999999999968" y="1780" as="sourcePoint" />
            <mxPoint x="1095" y="1810" as="targetPoint" />
          </mxGeometry>
        </mxCell>
        <mxCell id="65Ibzihye3PbVpg7L_qn-85" value="id" style="ellipse;whiteSpace=wrap;html=1;align=center;fontStyle=4;" parent="1" vertex="1">
          <mxGeometry x="1265" y="1630" width="100" height="40" as="geometry" />
        </mxCell>
        <mxCell id="65Ibzihye3PbVpg7L_qn-86" value="" style="endArrow=none;html=1;rounded=0;" parent="1" source="65Ibzihye3PbVpg7L_qn-56" target="65Ibzihye3PbVpg7L_qn-85" edge="1">
          <mxGeometry width="50" height="50" relative="1" as="geometry">
            <mxPoint x="1155" y="1560" as="sourcePoint" />
            <mxPoint x="1205" y="1510" as="targetPoint" />
          </mxGeometry>
        </mxCell>
        <mxCell id="65Ibzihye3PbVpg7L_qn-87" value="&lt;span style=&quot;border-bottom: 1px dotted;&quot;&gt;name&lt;/span&gt;" style="ellipse;whiteSpace=wrap;html=1;align=center;" parent="1" vertex="1">
          <mxGeometry x="935" y="1760" width="100" height="40" as="geometry" />
        </mxCell>
        <mxCell id="65Ibzihye3PbVpg7L_qn-88" value="" style="endArrow=none;html=1;rounded=0;" parent="1" source="65Ibzihye3PbVpg7L_qn-77" target="65Ibzihye3PbVpg7L_qn-89" edge="1">
          <mxGeometry width="50" height="50" relative="1" as="geometry">
            <mxPoint x="1115" y="1860" as="sourcePoint" />
            <mxPoint x="1295" y="1780" as="targetPoint" />
          </mxGeometry>
        </mxCell>
        <mxCell id="65Ibzihye3PbVpg7L_qn-89" value="quantity" style="ellipse;whiteSpace=wrap;html=1;align=center;" parent="1" vertex="1">
          <mxGeometry x="1275" y="1760" width="100" height="40" as="geometry" />
        </mxCell>
        <mxCell id="65Ibzihye3PbVpg7L_qn-90" value="" style="fontSize=12;html=1;endArrow=ERoneToMany;rounded=0;" parent="1" source="65Ibzihye3PbVpg7L_qn-78" target="65Ibzihye3PbVpg7L_qn-77" edge="1">
          <mxGeometry width="100" height="100" relative="1" as="geometry">
            <mxPoint x="1125" y="1720" as="sourcePoint" />
            <mxPoint x="1265" y="1720" as="targetPoint" />
          </mxGeometry>
        </mxCell>
        <mxCell id="65Ibzihye3PbVpg7L_qn-91" value="" style="endArrow=none;html=1;rounded=0;" parent="1" source="65Ibzihye3PbVpg7L_qn-56" target="65Ibzihye3PbVpg7L_qn-78" edge="1">
          <mxGeometry relative="1" as="geometry">
            <mxPoint x="1095" y="1670" as="sourcePoint" />
            <mxPoint x="1255" y="1670" as="targetPoint" />
          </mxGeometry>
        </mxCell>
        <mxCell id="65Ibzihye3PbVpg7L_qn-93" value="staff" style="rounded=1;arcSize=10;whiteSpace=wrap;html=1;align=center;" parent="1" vertex="1">
          <mxGeometry x="395" y="1520" width="100" height="40" as="geometry" />
        </mxCell>
        <mxCell id="65Ibzihye3PbVpg7L_qn-94" value="" style="endArrow=none;html=1;rounded=0;" parent="1" source="65Ibzihye3PbVpg7L_qn-96" target="65Ibzihye3PbVpg7L_qn-93" edge="1">
          <mxGeometry width="50" height="50" relative="1" as="geometry">
            <mxPoint x="395" y="1600" as="sourcePoint" />
            <mxPoint x="425" y="1588" as="targetPoint" />
          </mxGeometry>
        </mxCell>
        <mxCell id="65Ibzihye3PbVpg7L_qn-96" value="First name" style="ellipse;whiteSpace=wrap;html=1;align=center;" parent="1" vertex="1">
          <mxGeometry x="521" y="1460" width="100" height="40" as="geometry" />
        </mxCell>
        <mxCell id="65Ibzihye3PbVpg7L_qn-97" value="id" style="ellipse;whiteSpace=wrap;html=1;align=center;fontStyle=4;" parent="1" vertex="1">
          <mxGeometry x="195" y="1520" width="100" height="40" as="geometry" />
        </mxCell>
        <mxCell id="65Ibzihye3PbVpg7L_qn-98" value="" style="endArrow=none;html=1;rounded=0;" parent="1" source="65Ibzihye3PbVpg7L_qn-97" target="65Ibzihye3PbVpg7L_qn-93" edge="1">
          <mxGeometry width="50" height="50" relative="1" as="geometry">
            <mxPoint x="355" y="1612" as="sourcePoint" />
            <mxPoint x="421" y="1580" as="targetPoint" />
          </mxGeometry>
        </mxCell>
        <mxCell id="65Ibzihye3PbVpg7L_qn-99" value="" style="endArrow=none;html=1;rounded=0;" parent="1" source="65Ibzihye3PbVpg7L_qn-93" target="65Ibzihye3PbVpg7L_qn-100" edge="1">
          <mxGeometry width="50" height="50" relative="1" as="geometry">
            <mxPoint x="535" y="1660" as="sourcePoint" />
            <mxPoint x="545" y="1590" as="targetPoint" />
          </mxGeometry>
        </mxCell>
        <mxCell id="65Ibzihye3PbVpg7L_qn-100" value="birthdate" style="ellipse;whiteSpace=wrap;html=1;align=center;" parent="1" vertex="1">
          <mxGeometry x="245" y="1460" width="100" height="40" as="geometry" />
        </mxCell>
        <mxCell id="65Ibzihye3PbVpg7L_qn-101" value="Age" style="ellipse;whiteSpace=wrap;html=1;align=center;dashed=1;" parent="1" vertex="1">
          <mxGeometry x="245" y="1580" width="100" height="40" as="geometry" />
        </mxCell>
        <mxCell id="65Ibzihye3PbVpg7L_qn-102" value="" style="endArrow=none;html=1;rounded=0;" parent="1" source="65Ibzihye3PbVpg7L_qn-93" target="65Ibzihye3PbVpg7L_qn-101" edge="1">
          <mxGeometry width="50" height="50" relative="1" as="geometry">
            <mxPoint x="495" y="1695" as="sourcePoint" />
            <mxPoint x="561" y="1663" as="targetPoint" />
          </mxGeometry>
        </mxCell>
        <mxCell id="65Ibzihye3PbVpg7L_qn-106" value="" style="endArrow=none;html=1;rounded=0;" parent="1" edge="1" target="5PiXKEkqAaMQAXL7R4vB-10" source="5PiXKEkqAaMQAXL7R4vB-9">
          <mxGeometry relative="1" as="geometry">
            <mxPoint x="445" y="1433" as="sourcePoint" />
            <mxPoint x="445" y="1384" as="targetPoint" />
          </mxGeometry>
        </mxCell>
        <mxCell id="65Ibzihye3PbVpg7L_qn-108" value="" style="endArrow=none;html=1;rounded=0;" parent="1" edge="1" target="5PiXKEkqAaMQAXL7R4vB-12" source="5PiXKEkqAaMQAXL7R4vB-10">
          <mxGeometry width="50" height="50" relative="1" as="geometry">
            <mxPoint x="495" y="1380" as="sourcePoint" />
            <mxPoint x="544.9999999999891" y="1380" as="targetPoint" />
          </mxGeometry>
        </mxCell>
        <mxCell id="65Ibzihye3PbVpg7L_qn-112" value="" style="endArrow=none;html=1;rounded=0;" parent="1" source="5PiXKEkqAaMQAXL7R4vB-1" target="5PiXKEkqAaMQAXL7R4vB-3" edge="1">
          <mxGeometry relative="1" as="geometry">
            <mxPoint x="715" y="1453" as="sourcePoint" />
            <mxPoint x="775" y="1453" as="targetPoint" />
          </mxGeometry>
        </mxCell>
        <mxCell id="5PiXKEkqAaMQAXL7R4vB-1" value="has" style="shape=rhombus;perimeter=rhombusPerimeter;whiteSpace=wrap;html=1;align=center;" parent="1" vertex="1">
          <mxGeometry x="385" y="1655" width="120" height="60" as="geometry" />
        </mxCell>
        <mxCell id="5PiXKEkqAaMQAXL7R4vB-3" value="Experience" style="rounded=1;arcSize=10;whiteSpace=wrap;html=1;align=center;" parent="1" vertex="1">
          <mxGeometry x="395" y="1770" width="100" height="40" as="geometry" />
        </mxCell>
        <mxCell id="5PiXKEkqAaMQAXL7R4vB-4" value="Description" style="ellipse;whiteSpace=wrap;html=1;align=center;" parent="1" vertex="1">
          <mxGeometry x="530" y="1770" width="100" height="40" as="geometry" />
        </mxCell>
        <mxCell id="5PiXKEkqAaMQAXL7R4vB-5" value="ID" style="ellipse;whiteSpace=wrap;html=1;align=center;fontStyle=4;" parent="1" vertex="1">
          <mxGeometry x="260" y="1770" width="100" height="40" as="geometry" />
        </mxCell>
        <mxCell id="5PiXKEkqAaMQAXL7R4vB-7" value="" style="endArrow=none;html=1;rounded=0;" parent="1" source="5PiXKEkqAaMQAXL7R4vB-3" target="5PiXKEkqAaMQAXL7R4vB-5" edge="1">
          <mxGeometry width="50" height="50" relative="1" as="geometry">
            <mxPoint x="735" y="1446" as="sourcePoint" />
            <mxPoint x="815" y="1306" as="targetPoint" />
          </mxGeometry>
        </mxCell>
        <mxCell id="5PiXKEkqAaMQAXL7R4vB-8" value="" style="endArrow=none;html=1;rounded=0;" parent="1" source="5PiXKEkqAaMQAXL7R4vB-4" target="5PiXKEkqAaMQAXL7R4vB-3" edge="1">
          <mxGeometry width="50" height="50" relative="1" as="geometry">
            <mxPoint x="735" y="1446" as="sourcePoint" />
            <mxPoint x="785" y="1396" as="targetPoint" />
          </mxGeometry>
        </mxCell>
        <mxCell id="5PiXKEkqAaMQAXL7R4vB-10" value="Role" style="rounded=1;arcSize=10;whiteSpace=wrap;html=1;align=center;" parent="1" vertex="1">
          <mxGeometry x="395" y="1320" width="100" height="40" as="geometry" />
        </mxCell>
        <mxCell id="5PiXKEkqAaMQAXL7R4vB-12" value="Description" style="ellipse;whiteSpace=wrap;html=1;align=center;" parent="1" vertex="1">
          <mxGeometry x="545" y="1320" width="100" height="40" as="geometry" />
        </mxCell>
        <mxCell id="5PiXKEkqAaMQAXL7R4vB-14" value="ID" style="ellipse;whiteSpace=wrap;html=1;align=center;fontStyle=4;" parent="1" vertex="1">
          <mxGeometry x="245" y="1320" width="100" height="40" as="geometry" />
        </mxCell>
        <mxCell id="5PiXKEkqAaMQAXL7R4vB-15" value="" style="endArrow=none;html=1;rounded=0;" parent="1" source="5PiXKEkqAaMQAXL7R4vB-10" target="5PiXKEkqAaMQAXL7R4vB-14" edge="1">
          <mxGeometry width="50" height="50" relative="1" as="geometry">
            <mxPoint x="575" y="1526" as="sourcePoint" />
            <mxPoint x="625" y="1476" as="targetPoint" />
          </mxGeometry>
        </mxCell>
        <mxCell id="5PiXKEkqAaMQAXL7R4vB-16" value="" style="fontSize=12;html=1;endArrow=ERoneToMany;rounded=0;" parent="1" source="5PiXKEkqAaMQAXL7R4vB-9" target="65Ibzihye3PbVpg7L_qn-93" edge="1">
          <mxGeometry width="100" height="100" relative="1" as="geometry">
            <mxPoint x="245" y="1530" as="sourcePoint" />
            <mxPoint x="345" y="1430" as="targetPoint" />
          </mxGeometry>
        </mxCell>
        <mxCell id="5PiXKEkqAaMQAXL7R4vB-17" value="" style="fontSize=12;html=1;endArrow=ERoneToMany;rounded=0;" parent="1" source="5PiXKEkqAaMQAXL7R4vB-1" target="65Ibzihye3PbVpg7L_qn-93" edge="1">
          <mxGeometry width="100" height="100" relative="1" as="geometry">
            <mxPoint x="455" y="1503" as="sourcePoint" />
            <mxPoint x="455" y="1530" as="targetPoint" />
          </mxGeometry>
        </mxCell>
        <mxCell id="5PiXKEkqAaMQAXL7R4vB-18" value="Continent" style="rounded=1;arcSize=10;whiteSpace=wrap;html=1;align=center;" parent="1" vertex="1">
          <mxGeometry x="575" y="830" width="100" height="40" as="geometry" />
        </mxCell>
        <mxCell id="5PiXKEkqAaMQAXL7R4vB-19" value="is in" style="shape=rhombus;perimeter=rhombusPerimeter;whiteSpace=wrap;html=1;align=center;" parent="1" vertex="1">
          <mxGeometry x="415" y="820" width="120" height="60" as="geometry" />
        </mxCell>
        <mxCell id="5PiXKEkqAaMQAXL7R4vB-20" value="" style="endArrow=none;html=1;rounded=0;" parent="1" source="5PiXKEkqAaMQAXL7R4vB-19" target="5PiXKEkqAaMQAXL7R4vB-18" edge="1">
          <mxGeometry width="50" height="50" relative="1" as="geometry">
            <mxPoint x="615" y="670" as="sourcePoint" />
            <mxPoint x="665" y="620" as="targetPoint" />
          </mxGeometry>
        </mxCell>
        <mxCell id="5PiXKEkqAaMQAXL7R4vB-22" value="ID" style="ellipse;whiteSpace=wrap;html=1;align=center;fontStyle=4;" parent="1" vertex="1">
          <mxGeometry x="575" y="900" width="100" height="40" as="geometry" />
        </mxCell>
        <mxCell id="5PiXKEkqAaMQAXL7R4vB-23" value="" style="endArrow=none;html=1;rounded=0;" parent="1" source="5PiXKEkqAaMQAXL7R4vB-18" target="5PiXKEkqAaMQAXL7R4vB-22" edge="1">
          <mxGeometry width="50" height="50" relative="1" as="geometry">
            <mxPoint x="775" y="680" as="sourcePoint" />
            <mxPoint x="825" y="630" as="targetPoint" />
          </mxGeometry>
        </mxCell>
        <mxCell id="5PiXKEkqAaMQAXL7R4vB-24" value="Name" style="ellipse;whiteSpace=wrap;html=1;align=center;" parent="1" vertex="1">
          <mxGeometry x="575" y="760" width="100" height="40" as="geometry" />
        </mxCell>
        <mxCell id="5PiXKEkqAaMQAXL7R4vB-25" value="" style="endArrow=none;html=1;rounded=0;" parent="1" source="5PiXKEkqAaMQAXL7R4vB-24" target="5PiXKEkqAaMQAXL7R4vB-18" edge="1">
          <mxGeometry width="50" height="50" relative="1" as="geometry">
            <mxPoint x="775" y="680" as="sourcePoint" />
            <mxPoint x="825" y="630" as="targetPoint" />
          </mxGeometry>
        </mxCell>
        <mxCell id="5PiXKEkqAaMQAXL7R4vB-26" value="" style="fontSize=12;html=1;endArrow=ERoneToMany;rounded=0;" parent="1" source="5PiXKEkqAaMQAXL7R4vB-19" target="65Ibzihye3PbVpg7L_qn-35" edge="1">
          <mxGeometry width="100" height="100" relative="1" as="geometry">
            <mxPoint x="525" y="630" as="sourcePoint" />
            <mxPoint x="415" y="790" as="targetPoint" />
          </mxGeometry>
        </mxCell>
        <mxCell id="5PiXKEkqAaMQAXL7R4vB-27" value="" style="endArrow=none;html=1;rounded=0;" parent="1" source="65Ibzihye3PbVpg7L_qn-57" target="5PiXKEkqAaMQAXL7R4vB-38" edge="1">
          <mxGeometry width="50" height="50" relative="1" as="geometry">
            <mxPoint x="1957.299395464675" y="1070" as="sourcePoint" />
            <mxPoint x="2054.999999999989" y="1050" as="targetPoint" />
          </mxGeometry>
        </mxCell>
        <mxCell id="5PiXKEkqAaMQAXL7R4vB-29" value="performance_type" style="rounded=1;arcSize=10;whiteSpace=wrap;html=1;align=center;" parent="1" vertex="1">
          <mxGeometry x="1875" y="1260" width="100" height="40" as="geometry" />
        </mxCell>
        <mxCell id="5PiXKEkqAaMQAXL7R4vB-30" value="is" style="shape=rhombus;perimeter=rhombusPerimeter;whiteSpace=wrap;html=1;align=center;" parent="1" vertex="1">
          <mxGeometry x="1865" y="1154" width="120" height="60" as="geometry" />
        </mxCell>
        <mxCell id="5PiXKEkqAaMQAXL7R4vB-31" value="" style="endArrow=none;html=1;rounded=0;" parent="1" source="5PiXKEkqAaMQAXL7R4vB-30" target="5PiXKEkqAaMQAXL7R4vB-29" edge="1">
          <mxGeometry width="50" height="50" relative="1" as="geometry">
            <mxPoint x="1865" y="940" as="sourcePoint" />
            <mxPoint x="1915" y="890" as="targetPoint" />
          </mxGeometry>
        </mxCell>
        <mxCell id="5PiXKEkqAaMQAXL7R4vB-32" value="" style="fontSize=12;html=1;endArrow=ERoneToMany;rounded=0;" parent="1" source="5PiXKEkqAaMQAXL7R4vB-30" edge="1" target="65Ibzihye3PbVpg7L_qn-57">
          <mxGeometry width="100" height="100" relative="1" as="geometry">
            <mxPoint x="2135" y="1100" as="sourcePoint" />
            <mxPoint x="1925" y="1030" as="targetPoint" />
          </mxGeometry>
        </mxCell>
        <mxCell id="5PiXKEkqAaMQAXL7R4vB-33" value="Type" style="ellipse;whiteSpace=wrap;html=1;align=center;" parent="1" vertex="1">
          <mxGeometry x="1735" y="1260" width="100" height="40" as="geometry" />
        </mxCell>
        <mxCell id="5PiXKEkqAaMQAXL7R4vB-34" value="ID" style="ellipse;whiteSpace=wrap;html=1;align=center;fontStyle=4;" parent="1" vertex="1">
          <mxGeometry x="2025" y="1260" width="100" height="40" as="geometry" />
        </mxCell>
        <mxCell id="5PiXKEkqAaMQAXL7R4vB-35" value="" style="endArrow=none;html=1;rounded=0;" parent="1" source="5PiXKEkqAaMQAXL7R4vB-29" target="5PiXKEkqAaMQAXL7R4vB-34" edge="1">
          <mxGeometry width="50" height="50" relative="1" as="geometry">
            <mxPoint x="1435" y="980" as="sourcePoint" />
            <mxPoint x="1815" y="890" as="targetPoint" />
          </mxGeometry>
        </mxCell>
        <mxCell id="5PiXKEkqAaMQAXL7R4vB-36" value="" style="endArrow=none;html=1;rounded=0;" parent="1" source="5PiXKEkqAaMQAXL7R4vB-29" target="5PiXKEkqAaMQAXL7R4vB-33" edge="1">
          <mxGeometry width="50" height="50" relative="1" as="geometry">
            <mxPoint x="1835" y="980" as="sourcePoint" />
            <mxPoint x="2205" y="960" as="targetPoint" />
          </mxGeometry>
        </mxCell>
        <mxCell id="5PiXKEkqAaMQAXL7R4vB-38" value="Time" style="ellipse;whiteSpace=wrap;html=1;align=center;" parent="1" vertex="1">
          <mxGeometry x="1985" y="960" width="100" height="40" as="geometry" />
        </mxCell>
        <mxCell id="5PiXKEkqAaMQAXL7R4vB-43" value="" style="endArrow=none;html=1;rounded=0;" parent="1" source="65Ibzihye3PbVpg7L_qn-57" target="5PiXKEkqAaMQAXL7R4vB-44" edge="1">
          <mxGeometry width="50" height="50" relative="1" as="geometry">
            <mxPoint x="1941.463396706355" y="1070" as="sourcePoint" />
            <mxPoint x="2035" y="1120" as="targetPoint" />
          </mxGeometry>
        </mxCell>
        <mxCell id="5PiXKEkqAaMQAXL7R4vB-44" value="Duration" style="ellipse;whiteSpace=wrap;html=1;align=center;" parent="1" vertex="1">
          <mxGeometry x="1755" y="1110" width="100" height="40" as="geometry" />
        </mxCell>
        <mxCell id="5PiXKEkqAaMQAXL7R4vB-45" value="Artist" style="rounded=1;arcSize=10;whiteSpace=wrap;html=1;align=center;" parent="1" vertex="1">
          <mxGeometry x="2305" y="1030" width="100" height="40" as="geometry" />
        </mxCell>
        <mxCell id="5PiXKEkqAaMQAXL7R4vB-46" value="" style="fontSize=12;html=1;endArrow=ERoneToMany;rounded=0;" parent="1" source="pUituZxMnZGrln5jDwbX-4" edge="1">
          <mxGeometry width="100" height="100" relative="1" as="geometry">
            <mxPoint x="2095" y="1050" as="sourcePoint" />
            <mxPoint x="1975" y="1050" as="targetPoint" />
          </mxGeometry>
        </mxCell>
        <mxCell id="5PiXKEkqAaMQAXL7R4vB-47" value="ID" style="ellipse;whiteSpace=wrap;html=1;align=center;fontStyle=4;" parent="1" vertex="1">
          <mxGeometry x="1995" y="1110" width="100" height="40" as="geometry" />
        </mxCell>
        <mxCell id="5PiXKEkqAaMQAXL7R4vB-48" value="" style="endArrow=none;html=1;rounded=0;" parent="1" source="65Ibzihye3PbVpg7L_qn-57" target="5PiXKEkqAaMQAXL7R4vB-47" edge="1">
          <mxGeometry width="50" height="50" relative="1" as="geometry">
            <mxPoint x="1975" y="1066.6666666666667" as="sourcePoint" />
            <mxPoint x="2075" y="1100" as="targetPoint" />
          </mxGeometry>
        </mxCell>
        <mxCell id="5PiXKEkqAaMQAXL7R4vB-49" style="edgeStyle=orthogonalEdgeStyle;rounded=0;orthogonalLoop=1;jettySize=auto;html=1;exitX=0.5;exitY=1;exitDx=0;exitDy=0;" parent="1" source="5PiXKEkqAaMQAXL7R4vB-38" target="5PiXKEkqAaMQAXL7R4vB-38" edge="1">
          <mxGeometry relative="1" as="geometry" />
        </mxCell>
        <mxCell id="5PiXKEkqAaMQAXL7R4vB-50" value="Name" style="ellipse;whiteSpace=wrap;html=1;align=center;" parent="1" vertex="1">
          <mxGeometry x="2245" y="850" width="100" height="40" as="geometry" />
        </mxCell>
        <mxCell id="5PiXKEkqAaMQAXL7R4vB-51" value="Stagename" style="ellipse;whiteSpace=wrap;html=1;align=center;" parent="1" vertex="1">
          <mxGeometry x="2465" y="940" width="100" height="40" as="geometry" />
        </mxCell>
        <mxCell id="5PiXKEkqAaMQAXL7R4vB-52" value="" style="endArrow=none;html=1;rounded=0;" parent="1" source="5PiXKEkqAaMQAXL7R4vB-45" target="5PiXKEkqAaMQAXL7R4vB-50" edge="1">
          <mxGeometry width="50" height="50" relative="1" as="geometry">
            <mxPoint x="2185" y="1210" as="sourcePoint" />
            <mxPoint x="2235" y="1160" as="targetPoint" />
          </mxGeometry>
        </mxCell>
        <mxCell id="5PiXKEkqAaMQAXL7R4vB-53" value="" style="endArrow=none;html=1;rounded=0;" parent="1" source="5PiXKEkqAaMQAXL7R4vB-45" target="5PiXKEkqAaMQAXL7R4vB-51" edge="1">
          <mxGeometry width="50" height="50" relative="1" as="geometry">
            <mxPoint x="2415" y="1044" as="sourcePoint" />
            <mxPoint x="2485" y="1022" as="targetPoint" />
          </mxGeometry>
        </mxCell>
        <mxCell id="5PiXKEkqAaMQAXL7R4vB-54" value="" style="endArrow=none;html=1;rounded=0;" parent="1" source="5PiXKEkqAaMQAXL7R4vB-45" target="5PiXKEkqAaMQAXL7R4vB-55" edge="1">
          <mxGeometry width="50" height="50" relative="1" as="geometry">
            <mxPoint x="2370" y="1074" as="sourcePoint" />
            <mxPoint x="2450" y="1104" as="targetPoint" />
          </mxGeometry>
        </mxCell>
        <mxCell id="5PiXKEkqAaMQAXL7R4vB-55" value="birthdate" style="ellipse;whiteSpace=wrap;html=1;align=center;" parent="1" vertex="1">
          <mxGeometry x="2405" y="1174" width="100" height="40" as="geometry" />
        </mxCell>
        <mxCell id="5PiXKEkqAaMQAXL7R4vB-56" value="" style="endArrow=none;html=1;rounded=0;" parent="1" source="5PiXKEkqAaMQAXL7R4vB-45" target="5PiXKEkqAaMQAXL7R4vB-57" edge="1">
          <mxGeometry width="50" height="50" relative="1" as="geometry">
            <mxPoint x="2315" y="1100" as="sourcePoint" />
            <mxPoint x="2395" y="1130" as="targetPoint" />
          </mxGeometry>
        </mxCell>
        <mxCell id="5PiXKEkqAaMQAXL7R4vB-57" value="site" style="ellipse;whiteSpace=wrap;html=1;align=center;" parent="1" vertex="1">
          <mxGeometry x="2205" y="1174" width="100" height="40" as="geometry" />
        </mxCell>
        <mxCell id="5PiXKEkqAaMQAXL7R4vB-58" value="" style="endArrow=none;html=1;rounded=0;" parent="1" source="5PiXKEkqAaMQAXL7R4vB-45" target="5PiXKEkqAaMQAXL7R4vB-59" edge="1">
          <mxGeometry width="50" height="50" relative="1" as="geometry">
            <mxPoint x="2301.9934765816715" y="1070" as="sourcePoint" />
            <mxPoint x="2255" y="1180" as="targetPoint" />
          </mxGeometry>
        </mxCell>
        <mxCell id="5PiXKEkqAaMQAXL7R4vB-59" value="Instagram profile" style="ellipse;whiteSpace=wrap;html=1;align=center;" parent="1" vertex="1">
          <mxGeometry x="2145" y="920" width="100" height="40" as="geometry" />
        </mxCell>
        <mxCell id="5PiXKEkqAaMQAXL7R4vB-60" value="" style="fontSize=12;html=1;endArrow=ERoneToMany;rounded=0;" parent="1" source="5PiXKEkqAaMQAXL7R4vB-61" target="5PiXKEkqAaMQAXL7R4vB-45" edge="1">
          <mxGeometry width="100" height="100" relative="1" as="geometry">
            <mxPoint x="2635" y="1050" as="sourcePoint" />
            <mxPoint x="2475" y="1069.05" as="targetPoint" />
          </mxGeometry>
        </mxCell>
        <mxCell id="5PiXKEkqAaMQAXL7R4vB-61" value="part of" style="shape=rhombus;perimeter=rhombusPerimeter;whiteSpace=wrap;html=1;align=center;" parent="1" vertex="1">
          <mxGeometry x="2555" y="1020" width="120" height="60" as="geometry" />
        </mxCell>
        <mxCell id="5PiXKEkqAaMQAXL7R4vB-62" value="" style="fontSize=12;html=1;endArrow=ERoneToMany;rounded=0;" parent="1" source="5PiXKEkqAaMQAXL7R4vB-61" edge="1">
          <mxGeometry width="100" height="100" relative="1" as="geometry">
            <mxPoint x="2325" y="1070" as="sourcePoint" />
            <mxPoint x="2825" y="1050" as="targetPoint" />
          </mxGeometry>
        </mxCell>
        <mxCell id="5PiXKEkqAaMQAXL7R4vB-63" value="Band" style="rounded=1;arcSize=10;whiteSpace=wrap;html=1;align=center;" parent="1" vertex="1">
          <mxGeometry x="2825" y="1030" width="100" height="40" as="geometry" />
        </mxCell>
        <mxCell id="5PiXKEkqAaMQAXL7R4vB-64" value="ID" style="ellipse;whiteSpace=wrap;html=1;align=center;fontStyle=4;" parent="1" vertex="1">
          <mxGeometry x="2415" y="860" width="100" height="40" as="geometry" />
        </mxCell>
        <mxCell id="5PiXKEkqAaMQAXL7R4vB-65" value="" style="endArrow=none;html=1;rounded=0;" parent="1" source="5PiXKEkqAaMQAXL7R4vB-64" target="5PiXKEkqAaMQAXL7R4vB-45" edge="1">
          <mxGeometry width="50" height="50" relative="1" as="geometry">
            <mxPoint x="2364.52" y="1160" as="sourcePoint" />
            <mxPoint x="2364.52" y="1070" as="targetPoint" />
          </mxGeometry>
        </mxCell>
        <mxCell id="5PiXKEkqAaMQAXL7R4vB-67" value="" style="endArrow=none;html=1;rounded=0;" parent="1" source="5PiXKEkqAaMQAXL7R4vB-63" target="5PiXKEkqAaMQAXL7R4vB-68" edge="1">
          <mxGeometry width="50" height="50" relative="1" as="geometry">
            <mxPoint x="2555" y="1090" as="sourcePoint" />
            <mxPoint x="2795" y="980" as="targetPoint" />
          </mxGeometry>
        </mxCell>
        <mxCell id="5PiXKEkqAaMQAXL7R4vB-68" value="Formation Date" style="ellipse;whiteSpace=wrap;html=1;align=center;" parent="1" vertex="1">
          <mxGeometry x="2665" y="950" width="100" height="40" as="geometry" />
        </mxCell>
        <mxCell id="5PiXKEkqAaMQAXL7R4vB-69" value="" style="endArrow=none;html=1;rounded=0;" parent="1" source="5PiXKEkqAaMQAXL7R4vB-63" target="5PiXKEkqAaMQAXL7R4vB-70" edge="1">
          <mxGeometry width="50" height="50" relative="1" as="geometry">
            <mxPoint x="2801" y="1098" as="sourcePoint" />
            <mxPoint x="2855" y="1158" as="targetPoint" />
          </mxGeometry>
        </mxCell>
        <mxCell id="5PiXKEkqAaMQAXL7R4vB-70" value="site" style="ellipse;whiteSpace=wrap;html=1;align=center;" parent="1" vertex="1">
          <mxGeometry x="2635" y="1100" width="100" height="40" as="geometry" />
        </mxCell>
        <mxCell id="5PiXKEkqAaMQAXL7R4vB-71" value="" style="endArrow=none;html=1;rounded=0;" parent="1" source="5PiXKEkqAaMQAXL7R4vB-63" target="5PiXKEkqAaMQAXL7R4vB-72" edge="1">
          <mxGeometry width="50" height="50" relative="1" as="geometry">
            <mxPoint x="3051" y="1270" as="sourcePoint" />
            <mxPoint x="3105" y="1330" as="targetPoint" />
          </mxGeometry>
        </mxCell>
        <mxCell id="5PiXKEkqAaMQAXL7R4vB-72" value="Name" style="ellipse;whiteSpace=wrap;html=1;align=center;" parent="1" vertex="1">
          <mxGeometry x="3015" y="1100" width="100" height="40" as="geometry" />
        </mxCell>
        <mxCell id="5PiXKEkqAaMQAXL7R4vB-73" value="" style="endArrow=none;html=1;rounded=0;" parent="1" source="5PiXKEkqAaMQAXL7R4vB-63" target="5PiXKEkqAaMQAXL7R4vB-74" edge="1">
          <mxGeometry width="50" height="50" relative="1" as="geometry">
            <mxPoint x="2371" y="1100" as="sourcePoint" />
            <mxPoint x="2425" y="1160" as="targetPoint" />
          </mxGeometry>
        </mxCell>
        <mxCell id="5PiXKEkqAaMQAXL7R4vB-74" value="Instagram Profile" style="ellipse;whiteSpace=wrap;html=1;align=center;" parent="1" vertex="1">
          <mxGeometry x="3005" y="950" width="100" height="40" as="geometry" />
        </mxCell>
        <mxCell id="5PiXKEkqAaMQAXL7R4vB-75" value="ID" style="ellipse;whiteSpace=wrap;html=1;align=center;fontStyle=4;" parent="1" vertex="1">
          <mxGeometry x="2825" y="910" width="100" height="40" as="geometry" />
        </mxCell>
        <mxCell id="5PiXKEkqAaMQAXL7R4vB-77" value="" style="endArrow=none;html=1;rounded=0;" parent="1" source="5PiXKEkqAaMQAXL7R4vB-63" target="5PiXKEkqAaMQAXL7R4vB-75" edge="1">
          <mxGeometry width="50" height="50" relative="1" as="geometry">
            <mxPoint x="2785" y="1180" as="sourcePoint" />
            <mxPoint x="2835" y="1130" as="targetPoint" />
          </mxGeometry>
        </mxCell>
        <mxCell id="5PiXKEkqAaMQAXL7R4vB-79" value="" style="fontSize=12;html=1;endArrow=ERoneToMany;rounded=0;" parent="1" source="5PiXKEkqAaMQAXL7R4vB-80" target="pUituZxMnZGrln5jDwbX-6" edge="1">
          <mxGeometry width="100" height="100" relative="1" as="geometry">
            <mxPoint x="2455" y="1131" as="sourcePoint" />
            <mxPoint x="2575.0000000000005" y="1354" as="targetPoint" />
          </mxGeometry>
        </mxCell>
        <mxCell id="5PiXKEkqAaMQAXL7R4vB-80" value="performs" style="shape=rhombus;perimeter=rhombusPerimeter;whiteSpace=wrap;html=1;align=center;" parent="1" vertex="1">
          <mxGeometry x="2295" y="1324" width="120" height="60" as="geometry" />
        </mxCell>
        <mxCell id="5PiXKEkqAaMQAXL7R4vB-82" value="" style="fontSize=12;html=1;endArrow=ERoneToMany;rounded=0;" parent="1" source="5PiXKEkqAaMQAXL7R4vB-83" target="pUituZxMnZGrln5jDwbX-6" edge="1">
          <mxGeometry width="100" height="100" relative="1" as="geometry">
            <mxPoint x="2845" y="1131" as="sourcePoint" />
            <mxPoint x="2675.0000000000005" y="1354" as="targetPoint" />
          </mxGeometry>
        </mxCell>
        <mxCell id="5PiXKEkqAaMQAXL7R4vB-83" value="is" style="shape=rhombus;perimeter=rhombusPerimeter;whiteSpace=wrap;html=1;align=center;" parent="1" vertex="1">
          <mxGeometry x="2815" y="1324" width="120" height="60" as="geometry" />
        </mxCell>
        <mxCell id="5PiXKEkqAaMQAXL7R4vB-85" value="Genre" style="rounded=1;arcSize=10;whiteSpace=wrap;html=1;align=center;" parent="1" vertex="1">
          <mxGeometry x="2575" y="1580" width="100" height="40" as="geometry" />
        </mxCell>
        <mxCell id="5PiXKEkqAaMQAXL7R4vB-86" value="ID" style="ellipse;whiteSpace=wrap;html=1;align=center;fontStyle=4;" parent="1" vertex="1">
          <mxGeometry x="2435" y="1580" width="100" height="40" as="geometry" />
        </mxCell>
        <mxCell id="5PiXKEkqAaMQAXL7R4vB-87" value="" style="endArrow=none;html=1;rounded=0;" parent="1" source="5PiXKEkqAaMQAXL7R4vB-85" target="5PiXKEkqAaMQAXL7R4vB-86" edge="1">
          <mxGeometry width="50" height="50" relative="1" as="geometry">
            <mxPoint x="2625" y="1857" as="sourcePoint" />
            <mxPoint x="2585" y="1957" as="targetPoint" />
          </mxGeometry>
        </mxCell>
        <mxCell id="5PiXKEkqAaMQAXL7R4vB-88" value="Name" style="ellipse;whiteSpace=wrap;html=1;align=center;" parent="1" vertex="1">
          <mxGeometry x="2715" y="1580" width="100" height="40" as="geometry" />
        </mxCell>
        <mxCell id="5PiXKEkqAaMQAXL7R4vB-89" value="" style="endArrow=none;html=1;rounded=0;" parent="1" source="5PiXKEkqAaMQAXL7R4vB-85" target="5PiXKEkqAaMQAXL7R4vB-88" edge="1">
          <mxGeometry width="50" height="50" relative="1" as="geometry">
            <mxPoint x="2565" y="2037" as="sourcePoint" />
            <mxPoint x="2415" y="2267" as="targetPoint" />
          </mxGeometry>
        </mxCell>
        <mxCell id="5PiXKEkqAaMQAXL7R4vB-91" value="" style="fontSize=12;html=1;endArrow=ERoneToMany;rounded=0;" parent="1" source="pUituZxMnZGrln5jDwbX-9" target="pUituZxMnZGrln5jDwbX-6" edge="1">
          <mxGeometry width="100" height="100" relative="1" as="geometry">
            <mxPoint x="2625" y="1453" as="sourcePoint" />
            <mxPoint x="2625.0000000000005" y="1374" as="targetPoint" />
          </mxGeometry>
        </mxCell>
        <mxCell id="5PiXKEkqAaMQAXL7R4vB-92" value="" style="endArrow=none;html=1;rounded=0;" parent="1" source="5PiXKEkqAaMQAXL7R4vB-85" target="pUituZxMnZGrln5jDwbX-9" edge="1">
          <mxGeometry relative="1" as="geometry">
            <mxPoint x="2665" y="1937" as="sourcePoint" />
            <mxPoint x="2625" y="1513" as="targetPoint" />
          </mxGeometry>
        </mxCell>
        <mxCell id="5PiXKEkqAaMQAXL7R4vB-95" value="" style="endArrow=none;html=1;rounded=0;" parent="1" source="pUituZxMnZGrln5jDwbX-6" target="5PiXKEkqAaMQAXL7R4vB-97" edge="1">
          <mxGeometry width="50" height="50" relative="1" as="geometry">
            <mxPoint x="2648.766484897044" y="1334" as="sourcePoint" />
            <mxPoint x="2744" y="1374" as="targetPoint" />
          </mxGeometry>
        </mxCell>
        <mxCell id="5PiXKEkqAaMQAXL7R4vB-97" value="Name" style="ellipse;whiteSpace=wrap;html=1;align=center;" parent="1" vertex="1">
          <mxGeometry x="2665" y="1270" width="100" height="40" as="geometry" />
        </mxCell>
        <mxCell id="5PiXKEkqAaMQAXL7R4vB-99" value="Visitor" style="rounded=1;arcSize=10;whiteSpace=wrap;html=1;align=center;" parent="1" vertex="1">
          <mxGeometry x="1105" y="380" width="100" height="40" as="geometry" />
        </mxCell>
        <mxCell id="5PiXKEkqAaMQAXL7R4vB-100" value="" style="endArrow=none;html=1;rounded=0;" parent="1" source="5PiXKEkqAaMQAXL7R4vB-99" target="5PiXKEkqAaMQAXL7R4vB-101" edge="1">
          <mxGeometry width="50" height="50" relative="1" as="geometry">
            <mxPoint x="1125" y="590" as="sourcePoint" />
            <mxPoint x="1285" y="400" as="targetPoint" />
          </mxGeometry>
        </mxCell>
        <mxCell id="5PiXKEkqAaMQAXL7R4vB-101" value="Name" style="ellipse;whiteSpace=wrap;html=1;align=center;" parent="1" vertex="1">
          <mxGeometry x="1255" y="430" width="100" height="40" as="geometry" />
        </mxCell>
        <mxCell id="5PiXKEkqAaMQAXL7R4vB-102" value="" style="endArrow=none;html=1;rounded=0;" parent="1" source="5PiXKEkqAaMQAXL7R4vB-99" target="5PiXKEkqAaMQAXL7R4vB-103" edge="1">
          <mxGeometry width="50" height="50" relative="1" as="geometry">
            <mxPoint x="855" y="400" as="sourcePoint" />
            <mxPoint x="935" y="400" as="targetPoint" />
          </mxGeometry>
        </mxCell>
        <mxCell id="5PiXKEkqAaMQAXL7R4vB-103" value="Email" style="ellipse;whiteSpace=wrap;html=1;align=center;" parent="1" vertex="1">
          <mxGeometry x="955" y="430" width="100" height="40" as="geometry" />
        </mxCell>
        <mxCell id="5PiXKEkqAaMQAXL7R4vB-104" value="Ticket" style="rounded=1;arcSize=10;whiteSpace=wrap;html=1;align=center;" parent="1" vertex="1">
          <mxGeometry x="1105" y="720" width="100" height="40" as="geometry" />
        </mxCell>
        <mxCell id="5PiXKEkqAaMQAXL7R4vB-105" value="Owns" style="shape=rhombus;perimeter=rhombusPerimeter;whiteSpace=wrap;html=1;align=center;" parent="1" vertex="1">
          <mxGeometry x="1095" y="510" width="120" height="60" as="geometry" />
        </mxCell>
        <mxCell id="5PiXKEkqAaMQAXL7R4vB-107" value="" style="fontSize=12;html=1;endArrow=ERoneToMany;rounded=0;" parent="1" source="5PiXKEkqAaMQAXL7R4vB-105" target="5PiXKEkqAaMQAXL7R4vB-104" edge="1">
          <mxGeometry width="100" height="100" relative="1" as="geometry">
            <mxPoint x="944.5799999999999" y="730" as="sourcePoint" />
            <mxPoint x="944.5799999999999" y="690" as="targetPoint" />
          </mxGeometry>
        </mxCell>
        <mxCell id="5PiXKEkqAaMQAXL7R4vB-108" value="" style="endArrow=none;html=1;rounded=0;" parent="1" source="5PiXKEkqAaMQAXL7R4vB-99" target="5PiXKEkqAaMQAXL7R4vB-105" edge="1">
          <mxGeometry width="50" height="50" relative="1" as="geometry">
            <mxPoint x="1005" y="620" as="sourcePoint" />
            <mxPoint x="1075" y="740" as="targetPoint" />
          </mxGeometry>
        </mxCell>
        <mxCell id="5PiXKEkqAaMQAXL7R4vB-109" value="Phone" style="ellipse;whiteSpace=wrap;html=1;align=center;" parent="1" vertex="1">
          <mxGeometry x="955" y="330" width="100" height="40" as="geometry" />
        </mxCell>
        <mxCell id="5PiXKEkqAaMQAXL7R4vB-113" value="" style="endArrow=none;html=1;rounded=0;" parent="1" source="5PiXKEkqAaMQAXL7R4vB-99" target="5PiXKEkqAaMQAXL7R4vB-109" edge="1">
          <mxGeometry width="50" height="50" relative="1" as="geometry">
            <mxPoint x="1265" y="530" as="sourcePoint" />
            <mxPoint x="1315" y="480" as="targetPoint" />
          </mxGeometry>
        </mxCell>
        <mxCell id="5PiXKEkqAaMQAXL7R4vB-114" value="" style="endArrow=none;html=1;rounded=0;" parent="1" source="5PiXKEkqAaMQAXL7R4vB-99" target="5PiXKEkqAaMQAXL7R4vB-115" edge="1">
          <mxGeometry width="50" height="50" relative="1" as="geometry">
            <mxPoint x="1382" y="190" as="sourcePoint" />
            <mxPoint x="1505" y="220" as="targetPoint" />
          </mxGeometry>
        </mxCell>
        <mxCell id="5PiXKEkqAaMQAXL7R4vB-115" value="birthdate" style="ellipse;whiteSpace=wrap;html=1;align=center;" parent="1" vertex="1">
          <mxGeometry x="945" y="380" width="100" height="40" as="geometry" />
        </mxCell>
        <mxCell id="5PiXKEkqAaMQAXL7R4vB-116" value="Age" style="ellipse;whiteSpace=wrap;html=1;align=center;dashed=1;" parent="1" vertex="1">
          <mxGeometry x="1255" y="380" width="100" height="40" as="geometry" />
        </mxCell>
        <mxCell id="5PiXKEkqAaMQAXL7R4vB-117" value="" style="endArrow=none;html=1;rounded=0;" parent="1" source="5PiXKEkqAaMQAXL7R4vB-99" target="5PiXKEkqAaMQAXL7R4vB-116" edge="1">
          <mxGeometry width="50" height="50" relative="1" as="geometry">
            <mxPoint x="1405" y="190" as="sourcePoint" />
            <mxPoint x="1521" y="293" as="targetPoint" />
          </mxGeometry>
        </mxCell>
        <mxCell id="5PiXKEkqAaMQAXL7R4vB-118" value="" style="endArrow=none;html=1;rounded=0;" parent="1" source="5PiXKEkqAaMQAXL7R4vB-104" target="5PiXKEkqAaMQAXL7R4vB-119" edge="1">
          <mxGeometry width="50" height="50" relative="1" as="geometry">
            <mxPoint x="1195" y="620" as="sourcePoint" />
            <mxPoint x="1255" y="510" as="targetPoint" />
          </mxGeometry>
        </mxCell>
        <mxCell id="5PiXKEkqAaMQAXL7R4vB-119" value="Purchase Date" style="ellipse;whiteSpace=wrap;html=1;align=center;" parent="1" vertex="1">
          <mxGeometry x="1285" y="650" width="100" height="40" as="geometry" />
        </mxCell>
        <mxCell id="5PiXKEkqAaMQAXL7R4vB-121" value="is" style="shape=rhombus;perimeter=rhombusPerimeter;whiteSpace=wrap;html=1;align=center;" parent="1" vertex="1">
          <mxGeometry x="1295" y="710" width="120" height="60" as="geometry" />
        </mxCell>
        <mxCell id="5PiXKEkqAaMQAXL7R4vB-122" value="" style="endArrow=none;html=1;rounded=0;" parent="1" source="5PiXKEkqAaMQAXL7R4vB-121" target="5PiXKEkqAaMQAXL7R4vB-123" edge="1">
          <mxGeometry relative="1" as="geometry">
            <mxPoint x="1375" y="740" as="sourcePoint" />
            <mxPoint x="1475" y="740" as="targetPoint" />
          </mxGeometry>
        </mxCell>
        <mxCell id="5PiXKEkqAaMQAXL7R4vB-123" value="Ticket Type" style="rounded=1;arcSize=10;whiteSpace=wrap;html=1;align=center;" parent="1" vertex="1">
          <mxGeometry x="1515" y="720" width="100" height="40" as="geometry" />
        </mxCell>
        <mxCell id="5PiXKEkqAaMQAXL7R4vB-124" value="ID" style="ellipse;whiteSpace=wrap;html=1;align=center;fontStyle=4;" parent="1" vertex="1">
          <mxGeometry x="1655" y="720" width="100" height="40" as="geometry" />
        </mxCell>
        <mxCell id="5PiXKEkqAaMQAXL7R4vB-125" value="" style="endArrow=none;html=1;rounded=0;" parent="1" target="5PiXKEkqAaMQAXL7R4vB-124" edge="1">
          <mxGeometry width="50" height="50" relative="1" as="geometry">
            <mxPoint x="1615" y="740" as="sourcePoint" />
            <mxPoint x="1535" y="680" as="targetPoint" />
          </mxGeometry>
        </mxCell>
        <mxCell id="5PiXKEkqAaMQAXL7R4vB-126" value="Type" style="ellipse;whiteSpace=wrap;html=1;align=center;" parent="1" vertex="1">
          <mxGeometry x="1515" y="800" width="100" height="40" as="geometry" />
        </mxCell>
        <mxCell id="5PiXKEkqAaMQAXL7R4vB-127" value="" style="endArrow=none;html=1;rounded=0;" parent="1" source="5PiXKEkqAaMQAXL7R4vB-126" edge="1">
          <mxGeometry width="50" height="50" relative="1" as="geometry">
            <mxPoint x="1485" y="730" as="sourcePoint" />
            <mxPoint x="1565" y="760" as="targetPoint" />
          </mxGeometry>
        </mxCell>
        <mxCell id="5PiXKEkqAaMQAXL7R4vB-128" value="Cost" style="ellipse;whiteSpace=wrap;html=1;align=center;" parent="1" vertex="1">
          <mxGeometry x="1285" y="800" width="100" height="40" as="geometry" />
        </mxCell>
        <mxCell id="5PiXKEkqAaMQAXL7R4vB-129" value="" style="endArrow=none;html=1;rounded=0;" parent="1" source="5PiXKEkqAaMQAXL7R4vB-128" target="5PiXKEkqAaMQAXL7R4vB-104" edge="1">
          <mxGeometry width="50" height="50" relative="1" as="geometry">
            <mxPoint x="1135" y="860" as="sourcePoint" />
            <mxPoint x="1185" y="810" as="targetPoint" />
          </mxGeometry>
        </mxCell>
        <mxCell id="5PiXKEkqAaMQAXL7R4vB-133" value="for" style="shape=rhombus;perimeter=rhombusPerimeter;whiteSpace=wrap;html=1;align=center;" parent="1" vertex="1">
          <mxGeometry x="1095" y="860" width="120" height="60" as="geometry" />
        </mxCell>
        <mxCell id="5PiXKEkqAaMQAXL7R4vB-134" value="" style="endArrow=none;html=1;rounded=0;" parent="1" source="65Ibzihye3PbVpg7L_qn-54" target="5PiXKEkqAaMQAXL7R4vB-133" edge="1">
          <mxGeometry relative="1" as="geometry">
            <mxPoint x="1235" y="850" as="sourcePoint" />
            <mxPoint x="1395" y="850" as="targetPoint" />
          </mxGeometry>
        </mxCell>
        <mxCell id="5PiXKEkqAaMQAXL7R4vB-135" value="" style="fontSize=12;html=1;endArrow=ERoneToMany;rounded=0;" parent="1" source="5PiXKEkqAaMQAXL7R4vB-133" target="5PiXKEkqAaMQAXL7R4vB-104" edge="1">
          <mxGeometry width="100" height="100" relative="1" as="geometry">
            <mxPoint x="1154.5" y="840" as="sourcePoint" />
            <mxPoint x="1154.5" y="796" as="targetPoint" />
          </mxGeometry>
        </mxCell>
        <mxCell id="5PiXKEkqAaMQAXL7R4vB-136" value="bought with" style="shape=rhombus;perimeter=rhombusPerimeter;whiteSpace=wrap;html=1;align=center;" parent="1" vertex="1">
          <mxGeometry x="935" y="710" width="120" height="60" as="geometry" />
        </mxCell>
        <mxCell id="5PiXKEkqAaMQAXL7R4vB-138" value="Purchase type" style="rounded=1;arcSize=10;whiteSpace=wrap;html=1;align=center;" parent="1" vertex="1">
          <mxGeometry x="795" y="720" width="100" height="40" as="geometry" />
        </mxCell>
        <mxCell id="5PiXKEkqAaMQAXL7R4vB-139" value="" style="endArrow=none;html=1;rounded=0;" parent="1" source="5PiXKEkqAaMQAXL7R4vB-138" target="5PiXKEkqAaMQAXL7R4vB-136" edge="1">
          <mxGeometry relative="1" as="geometry">
            <mxPoint x="885" y="830" as="sourcePoint" />
            <mxPoint x="1045" y="830" as="targetPoint" />
          </mxGeometry>
        </mxCell>
        <mxCell id="5PiXKEkqAaMQAXL7R4vB-140" value="" style="fontSize=12;html=1;endArrow=ERoneToMany;rounded=0;" parent="1" source="5PiXKEkqAaMQAXL7R4vB-136" target="5PiXKEkqAaMQAXL7R4vB-104" edge="1">
          <mxGeometry width="100" height="100" relative="1" as="geometry">
            <mxPoint x="1165" y="870" as="sourcePoint" />
            <mxPoint x="1165" y="770" as="targetPoint" />
          </mxGeometry>
        </mxCell>
        <mxCell id="5PiXKEkqAaMQAXL7R4vB-141" value="" style="endArrow=none;html=1;rounded=0;exitX=0.5;exitY=1;exitDx=0;exitDy=0;" parent="1" source="5PiXKEkqAaMQAXL7R4vB-142" target="5PiXKEkqAaMQAXL7R4vB-138" edge="1">
          <mxGeometry width="50" height="50" relative="1" as="geometry">
            <mxPoint x="805" y="840" as="sourcePoint" />
            <mxPoint x="995" y="810" as="targetPoint" />
          </mxGeometry>
        </mxCell>
        <mxCell id="5PiXKEkqAaMQAXL7R4vB-142" value="Type" style="ellipse;whiteSpace=wrap;html=1;align=center;" parent="1" vertex="1">
          <mxGeometry x="795" y="800" width="100" height="40" as="geometry" />
        </mxCell>
        <mxCell id="5PiXKEkqAaMQAXL7R4vB-143" value="ID" style="ellipse;whiteSpace=wrap;html=1;align=center;fontStyle=4;" parent="1" vertex="1">
          <mxGeometry x="665" y="720" width="100" height="40" as="geometry" />
        </mxCell>
        <mxCell id="5PiXKEkqAaMQAXL7R4vB-144" value="" style="endArrow=none;html=1;rounded=0;" parent="1" source="5PiXKEkqAaMQAXL7R4vB-138" target="5PiXKEkqAaMQAXL7R4vB-143" edge="1">
          <mxGeometry width="50" height="50" relative="1" as="geometry">
            <mxPoint x="945" y="860" as="sourcePoint" />
            <mxPoint x="995" y="810" as="targetPoint" />
          </mxGeometry>
        </mxCell>
        <mxCell id="htuNGrUsFo3QCvrp3jUK-1" value="" style="fontSize=12;html=1;endArrow=ERoneToMany;rounded=0;" parent="1" source="htuNGrUsFo3QCvrp3jUK-2" target="65Ibzihye3PbVpg7L_qn-93" edge="1">
          <mxGeometry width="100" height="100" relative="1" as="geometry">
            <mxPoint x="655" y="1540" as="sourcePoint" />
            <mxPoint x="775" y="1560" as="targetPoint" />
          </mxGeometry>
        </mxCell>
        <mxCell id="htuNGrUsFo3QCvrp3jUK-2" value="works at" style="shape=rhombus;perimeter=rhombusPerimeter;whiteSpace=wrap;html=1;align=center;" parent="1" vertex="1">
          <mxGeometry x="735" y="1510" width="120" height="60" as="geometry" />
        </mxCell>
        <mxCell id="htuNGrUsFo3QCvrp3jUK-3" value="" style="endArrow=none;html=1;rounded=0;" parent="1" source="htuNGrUsFo3QCvrp3jUK-2" target="65Ibzihye3PbVpg7L_qn-56" edge="1">
          <mxGeometry relative="1" as="geometry">
            <mxPoint x="625" y="1570" as="sourcePoint" />
            <mxPoint x="785" y="1570" as="targetPoint" />
          </mxGeometry>
        </mxCell>
        <mxCell id="htuNGrUsFo3QCvrp3jUK-4" value="" style="endArrow=none;html=1;rounded=0;" parent="1" source="5PiXKEkqAaMQAXL7R4vB-104" target="htuNGrUsFo3QCvrp3jUK-5" edge="1">
          <mxGeometry width="50" height="50" relative="1" as="geometry">
            <mxPoint x="1235" y="790" as="sourcePoint" />
            <mxPoint x="1075" y="810" as="targetPoint" />
          </mxGeometry>
        </mxCell>
        <mxCell id="htuNGrUsFo3QCvrp3jUK-5" value="Used" style="ellipse;whiteSpace=wrap;html=1;align=center;" parent="1" vertex="1">
          <mxGeometry x="935" y="800" width="100" height="40" as="geometry" />
        </mxCell>
        <mxCell id="htuNGrUsFo3QCvrp3jUK-6" value="Resale queue" style="rounded=1;arcSize=10;whiteSpace=wrap;html=1;align=center;" parent="1" vertex="1">
          <mxGeometry x="795" y="600" width="100" height="40" as="geometry" />
        </mxCell>
        <mxCell id="htuNGrUsFo3QCvrp3jUK-15" value="" style="endArrow=none;html=1;rounded=0;" parent="1" source="htuNGrUsFo3QCvrp3jUK-17" target="5PiXKEkqAaMQAXL7R4vB-99" edge="1">
          <mxGeometry relative="1" as="geometry">
            <mxPoint x="1185" y="330" as="sourcePoint" />
            <mxPoint x="1225" y="640" as="targetPoint" />
          </mxGeometry>
        </mxCell>
        <mxCell id="htuNGrUsFo3QCvrp3jUK-17" value="is a" style="shape=rhombus;perimeter=rhombusPerimeter;whiteSpace=wrap;html=1;align=center;" parent="1" vertex="1">
          <mxGeometry x="1285" y="240" width="120" height="60" as="geometry" />
        </mxCell>
        <mxCell id="htuNGrUsFo3QCvrp3jUK-21" value="" style="endArrow=none;html=1;rounded=0;" parent="1" source="htuNGrUsFo3QCvrp3jUK-22" target="htuNGrUsFo3QCvrp3jUK-17" edge="1">
          <mxGeometry relative="1" as="geometry">
            <mxPoint x="1225" y="280" as="sourcePoint" />
            <mxPoint x="1225" y="360" as="targetPoint" />
            <Array as="points">
              <mxPoint x="1565" y="270" />
            </Array>
          </mxGeometry>
        </mxCell>
        <mxCell id="htuNGrUsFo3QCvrp3jUK-22" value="Buyer" style="rounded=1;arcSize=10;whiteSpace=wrap;html=1;align=center;" parent="1" vertex="1">
          <mxGeometry x="1515" y="380" width="100" height="40" as="geometry" />
        </mxCell>
        <mxCell id="htuNGrUsFo3QCvrp3jUK-25" value="" style="fontSize=12;html=1;endArrow=ERoneToMany;rounded=0;" parent="1" source="5PiXKEkqAaMQAXL7R4vB-121" target="5PiXKEkqAaMQAXL7R4vB-104" edge="1">
          <mxGeometry width="100" height="100" relative="1" as="geometry">
            <mxPoint x="1165" y="670" as="sourcePoint" />
            <mxPoint x="1165" y="730" as="targetPoint" />
          </mxGeometry>
        </mxCell>
        <mxCell id="htuNGrUsFo3QCvrp3jUK-26" value="interested in" style="shape=rhombus;perimeter=rhombusPerimeter;whiteSpace=wrap;html=1;align=center;" parent="1" vertex="1">
          <mxGeometry x="1505" y="610" width="120" height="60" as="geometry" />
        </mxCell>
        <mxCell id="htuNGrUsFo3QCvrp3jUK-27" value="" style="endArrow=none;html=1;rounded=0;" parent="1" source="5PiXKEkqAaMQAXL7R4vB-123" target="htuNGrUsFo3QCvrp3jUK-26" edge="1">
          <mxGeometry width="50" height="50" relative="1" as="geometry">
            <mxPoint x="1425" y="660" as="sourcePoint" />
            <mxPoint x="1454.52" y="500" as="targetPoint" />
          </mxGeometry>
        </mxCell>
        <mxCell id="htuNGrUsFo3QCvrp3jUK-28" value="" style="fontSize=12;html=1;endArrow=ERoneToMany;rounded=0;" parent="1" source="htuNGrUsFo3QCvrp3jUK-26" target="htuNGrUsFo3QCvrp3jUK-22" edge="1">
          <mxGeometry width="100" height="100" relative="1" as="geometry">
            <mxPoint x="1045" y="750" as="sourcePoint" />
            <mxPoint x="1455" y="430" as="targetPoint" />
          </mxGeometry>
        </mxCell>
        <mxCell id="htuNGrUsFo3QCvrp3jUK-29" value="" style="endArrow=none;html=1;rounded=0;entryX=0;entryY=0.5;entryDx=0;entryDy=0;" parent="1" source="65Ibzihye3PbVpg7L_qn-54" target="htuNGrUsFo3QCvrp3jUK-26" edge="1">
          <mxGeometry relative="1" as="geometry">
            <mxPoint x="1045" y="880" as="sourcePoint" />
            <mxPoint x="1375" y="880" as="targetPoint" />
            <Array as="points">
              <mxPoint x="1455" y="1000" />
              <mxPoint x="1455" y="640" />
            </Array>
          </mxGeometry>
        </mxCell>
        <mxCell id="htuNGrUsFo3QCvrp3jUK-30" value="ID" style="ellipse;whiteSpace=wrap;html=1;align=center;fontStyle=4;" parent="1" vertex="1">
          <mxGeometry x="1635" y="330" width="100" height="40" as="geometry" />
        </mxCell>
        <mxCell id="htuNGrUsFo3QCvrp3jUK-31" value="" style="endArrow=none;html=1;rounded=0;" parent="1" source="htuNGrUsFo3QCvrp3jUK-22" target="htuNGrUsFo3QCvrp3jUK-30" edge="1">
          <mxGeometry width="50" height="50" relative="1" as="geometry">
            <mxPoint x="1615" y="390" as="sourcePoint" />
            <mxPoint x="1535" y="330" as="targetPoint" />
          </mxGeometry>
        </mxCell>
        <mxCell id="htuNGrUsFo3QCvrp3jUK-34" value="ID" style="ellipse;whiteSpace=wrap;html=1;align=center;fontStyle=4;" parent="1" vertex="1">
          <mxGeometry x="1255" y="330" width="100" height="40" as="geometry" />
        </mxCell>
        <mxCell id="htuNGrUsFo3QCvrp3jUK-35" value="" style="endArrow=none;html=1;rounded=0;" parent="1" source="5PiXKEkqAaMQAXL7R4vB-99" target="htuNGrUsFo3QCvrp3jUK-34" edge="1">
          <mxGeometry width="50" height="50" relative="1" as="geometry">
            <mxPoint x="1195" y="350" as="sourcePoint" />
            <mxPoint x="1115" y="290" as="targetPoint" />
          </mxGeometry>
        </mxCell>
        <mxCell id="htuNGrUsFo3QCvrp3jUK-36" value="ID" style="ellipse;whiteSpace=wrap;html=1;align=center;fontStyle=4;" parent="1" vertex="1">
          <mxGeometry x="1015" y="1090" width="100" height="40" as="geometry" />
        </mxCell>
        <mxCell id="htuNGrUsFo3QCvrp3jUK-37" value="" style="endArrow=none;html=1;rounded=0;" parent="1" source="65Ibzihye3PbVpg7L_qn-54" target="htuNGrUsFo3QCvrp3jUK-36" edge="1">
          <mxGeometry width="50" height="50" relative="1" as="geometry">
            <mxPoint x="1215" y="1150" as="sourcePoint" />
            <mxPoint x="1135" y="1090" as="targetPoint" />
          </mxGeometry>
        </mxCell>
        <mxCell id="htuNGrUsFo3QCvrp3jUK-38" value="ID" style="ellipse;whiteSpace=wrap;html=1;align=center;fontStyle=4;" parent="1" vertex="1">
          <mxGeometry x="795" y="520" width="100" height="40" as="geometry" />
        </mxCell>
        <mxCell id="htuNGrUsFo3QCvrp3jUK-39" value="" style="endArrow=none;html=1;rounded=0;" parent="1" source="htuNGrUsFo3QCvrp3jUK-6" target="htuNGrUsFo3QCvrp3jUK-38" edge="1">
          <mxGeometry width="50" height="50" relative="1" as="geometry">
            <mxPoint x="1075" as="sourcePoint" />
            <mxPoint x="995" y="-60" as="targetPoint" />
          </mxGeometry>
        </mxCell>
        <mxCell id="htuNGrUsFo3QCvrp3jUK-50" value="issues" style="shape=rhombus;perimeter=rhombusPerimeter;whiteSpace=wrap;html=1;align=center;" parent="1" vertex="1">
          <mxGeometry x="1095" y="270" width="120" height="60" as="geometry" />
        </mxCell>
        <mxCell id="htuNGrUsFo3QCvrp3jUK-52" value="" style="endArrow=none;html=1;rounded=0;" parent="1" source="htuNGrUsFo3QCvrp3jUK-50" target="5PiXKEkqAaMQAXL7R4vB-99" edge="1">
          <mxGeometry relative="1" as="geometry">
            <mxPoint x="1405" y="630" as="sourcePoint" />
            <mxPoint x="1525" y="630" as="targetPoint" />
          </mxGeometry>
        </mxCell>
        <mxCell id="htuNGrUsFo3QCvrp3jUK-53" value="Review" style="rounded=1;arcSize=10;whiteSpace=wrap;html=1;align=center;" parent="1" vertex="1">
          <mxGeometry x="1105" y="150" width="100" height="40" as="geometry" />
        </mxCell>
        <mxCell id="htuNGrUsFo3QCvrp3jUK-56" value="ID" style="ellipse;whiteSpace=wrap;html=1;align=center;fontStyle=4;" parent="1" vertex="1">
          <mxGeometry x="1025" y="80" width="100" height="40" as="geometry" />
        </mxCell>
        <mxCell id="htuNGrUsFo3QCvrp3jUK-57" value="" style="fontSize=12;html=1;endArrow=ERoneToMany;rounded=0;" parent="1" source="htuNGrUsFo3QCvrp3jUK-50" target="htuNGrUsFo3QCvrp3jUK-53" edge="1">
          <mxGeometry width="100" height="100" relative="1" as="geometry">
            <mxPoint x="1395" y="470" as="sourcePoint" />
            <mxPoint x="1395" y="370" as="targetPoint" />
          </mxGeometry>
        </mxCell>
        <mxCell id="htuNGrUsFo3QCvrp3jUK-58" value="" style="endArrow=none;html=1;rounded=0;" parent="1" source="htuNGrUsFo3QCvrp3jUK-53" target="htuNGrUsFo3QCvrp3jUK-56" edge="1">
          <mxGeometry width="50" height="50" relative="1" as="geometry">
            <mxPoint x="1175" y="270" as="sourcePoint" />
            <mxPoint x="1225" y="220" as="targetPoint" />
          </mxGeometry>
        </mxCell>
        <mxCell id="htuNGrUsFo3QCvrp3jUK-61" value="" style="endArrow=none;html=1;rounded=0;" parent="1" source="htuNGrUsFo3QCvrp3jUK-70" target="htuNGrUsFo3QCvrp3jUK-53" edge="1">
          <mxGeometry relative="1" as="geometry">
            <mxPoint x="1155" y="110" as="sourcePoint" />
            <mxPoint x="1154.52" y="140" as="targetPoint" />
          </mxGeometry>
        </mxCell>
        <mxCell id="htuNGrUsFo3QCvrp3jUK-70" value="score" style="ellipse;whiteSpace=wrap;html=1;align=center;" parent="1" vertex="1">
          <mxGeometry x="1195" y="80" width="100" height="40" as="geometry" />
        </mxCell>
        <mxCell id="pUituZxMnZGrln5jDwbX-1" value="" style="fontSize=12;html=1;endArrow=ERoneToMany;rounded=0;" parent="1" source="5PiXKEkqAaMQAXL7R4vB-80" target="5PiXKEkqAaMQAXL7R4vB-45" edge="1">
          <mxGeometry width="100" height="100" relative="1" as="geometry">
            <mxPoint x="2425" y="1330" as="sourcePoint" />
            <mxPoint x="2584.9999999999995" y="1330" as="targetPoint" />
          </mxGeometry>
        </mxCell>
        <mxCell id="pUituZxMnZGrln5jDwbX-2" value="" style="fontSize=12;html=1;endArrow=ERoneToMany;rounded=0;" parent="1" source="5PiXKEkqAaMQAXL7R4vB-83" target="5PiXKEkqAaMQAXL7R4vB-63" edge="1">
          <mxGeometry width="100" height="100" relative="1" as="geometry">
            <mxPoint x="2985" y="1250" as="sourcePoint" />
            <mxPoint x="2594.9999999999995" y="1340" as="targetPoint" />
          </mxGeometry>
        </mxCell>
        <mxCell id="pUituZxMnZGrln5jDwbX-4" value="participates" style="shape=rhombus;perimeter=rhombusPerimeter;whiteSpace=wrap;html=1;align=center;" parent="1" vertex="1">
          <mxGeometry x="2075" y="1020" width="120" height="60" as="geometry" />
        </mxCell>
        <mxCell id="pUituZxMnZGrln5jDwbX-6" value="Subgenre" style="rounded=1;arcSize=10;whiteSpace=wrap;html=1;align=center;" parent="1" vertex="1">
          <mxGeometry x="2575" y="1334" width="100" height="40" as="geometry" />
        </mxCell>
        <mxCell id="pUituZxMnZGrln5jDwbX-7" value="ID" style="ellipse;whiteSpace=wrap;html=1;align=center;fontStyle=4;" parent="1" vertex="1">
          <mxGeometry x="2495" y="1270" width="100" height="40" as="geometry" />
        </mxCell>
        <mxCell id="pUituZxMnZGrln5jDwbX-8" value="" style="endArrow=none;html=1;rounded=0;" parent="1" source="pUituZxMnZGrln5jDwbX-6" target="pUituZxMnZGrln5jDwbX-7" edge="1">
          <mxGeometry width="50" height="50" relative="1" as="geometry">
            <mxPoint x="2663" y="1344" as="sourcePoint" />
            <mxPoint x="2700" y="1317" as="targetPoint" />
          </mxGeometry>
        </mxCell>
        <mxCell id="pUituZxMnZGrln5jDwbX-9" value="is" style="shape=rhombus;perimeter=rhombusPerimeter;whiteSpace=wrap;html=1;align=center;" parent="1" vertex="1">
          <mxGeometry x="2565" y="1450" width="120" height="60" as="geometry" />
        </mxCell>
        <mxCell id="pUituZxMnZGrln5jDwbX-12" value="ID" style="ellipse;whiteSpace=wrap;html=1;align=center;fontStyle=4;" parent="1" vertex="1">
          <mxGeometry x="1205" y="580" width="100" height="40" as="geometry" />
        </mxCell>
        <mxCell id="pUituZxMnZGrln5jDwbX-13" value="" style="endArrow=none;html=1;rounded=0;" parent="1" source="5PiXKEkqAaMQAXL7R4vB-104" target="pUituZxMnZGrln5jDwbX-12" edge="1">
          <mxGeometry width="50" height="50" relative="1" as="geometry">
            <mxPoint x="1190" y="703" as="sourcePoint" />
            <mxPoint x="1100" y="610" as="targetPoint" />
          </mxGeometry>
        </mxCell>
        <mxCell id="LYlLKMHyux9S67MS6WFG-1" value="for" style="shape=rhombus;perimeter=rhombusPerimeter;whiteSpace=wrap;html=1;align=center;" parent="1" vertex="1">
          <mxGeometry x="945" y="590" width="120" height="60" as="geometry" />
        </mxCell>
        <mxCell id="LYlLKMHyux9S67MS6WFG-2" value="" style="endArrow=none;html=1;rounded=0;" parent="1" source="htuNGrUsFo3QCvrp3jUK-6" target="LYlLKMHyux9S67MS6WFG-1" edge="1">
          <mxGeometry relative="1" as="geometry">
            <mxPoint x="855" y="580" as="sourcePoint" />
            <mxPoint x="1015" y="580" as="targetPoint" />
          </mxGeometry>
        </mxCell>
        <mxCell id="LYlLKMHyux9S67MS6WFG-6" value="" style="fontSize=12;html=1;endArrow=ERoneToMany;rounded=0;entryX=0.212;entryY=-0.001;entryDx=0;entryDy=0;entryPerimeter=0;" parent="1" source="LYlLKMHyux9S67MS6WFG-1" target="5PiXKEkqAaMQAXL7R4vB-104" edge="1">
          <mxGeometry width="100" height="100" relative="1" as="geometry">
            <mxPoint x="1045" y="750" as="sourcePoint" />
            <mxPoint x="1125" y="710" as="targetPoint" />
            <Array as="points">
              <mxPoint x="1125" y="620" />
            </Array>
          </mxGeometry>
        </mxCell>
        <mxCell id="fx9DWvGi49SFvxc28X_w-1" value="ID" style="ellipse;whiteSpace=wrap;html=1;align=center;fontStyle=4;" vertex="1" parent="1">
          <mxGeometry x="95" y="1120" width="100" height="40" as="geometry" />
        </mxCell>
        <mxCell id="fx9DWvGi49SFvxc28X_w-2" value="" style="endArrow=none;html=1;rounded=0;" edge="1" parent="1" target="fx9DWvGi49SFvxc28X_w-1" source="65Ibzihye3PbVpg7L_qn-14">
          <mxGeometry width="50" height="50" relative="1" as="geometry">
            <mxPoint x="74.9971409269653" y="898" as="sourcePoint" />
            <mxPoint x="371.96000000000004" y="692" as="targetPoint" />
          </mxGeometry>
        </mxCell>
        <mxCell id="fx9DWvGi49SFvxc28X_w-3" value="ID" style="ellipse;whiteSpace=wrap;html=1;align=center;fontStyle=4;" vertex="1" parent="1">
          <mxGeometry x="85" y="910" width="100" height="40" as="geometry" />
        </mxCell>
        <mxCell id="fx9DWvGi49SFvxc28X_w-4" value="" style="endArrow=none;html=1;rounded=0;" edge="1" parent="1" target="fx9DWvGi49SFvxc28X_w-3" source="65Ibzihye3PbVpg7L_qn-35">
          <mxGeometry width="50" height="50" relative="1" as="geometry">
            <mxPoint x="160" y="885" as="sourcePoint" />
            <mxPoint x="360" y="645" as="targetPoint" />
          </mxGeometry>
        </mxCell>
        <mxCell id="fx9DWvGi49SFvxc28X_w-5" value="Image URL" style="ellipse;whiteSpace=wrap;html=1;align=center;" vertex="1" parent="1">
          <mxGeometry x="2125" y="1110" width="100" height="40" as="geometry" />
        </mxCell>
        <mxCell id="fx9DWvGi49SFvxc28X_w-6" value="" style="endArrow=none;html=1;rounded=0;" edge="1" parent="1" target="fx9DWvGi49SFvxc28X_w-5" source="5PiXKEkqAaMQAXL7R4vB-45">
          <mxGeometry width="50" height="50" relative="1" as="geometry">
            <mxPoint x="2168" y="1420" as="sourcePoint" />
            <mxPoint x="2055" y="1550" as="targetPoint" />
          </mxGeometry>
        </mxCell>
        <mxCell id="fx9DWvGi49SFvxc28X_w-8" value="Image Description" style="ellipse;whiteSpace=wrap;html=1;align=center;" vertex="1" parent="1">
          <mxGeometry x="2485" y="1100" width="100" height="40" as="geometry" />
        </mxCell>
        <mxCell id="fx9DWvGi49SFvxc28X_w-9" value="" style="endArrow=none;html=1;rounded=0;" edge="1" parent="1" target="fx9DWvGi49SFvxc28X_w-8" source="5PiXKEkqAaMQAXL7R4vB-45">
          <mxGeometry width="50" height="50" relative="1" as="geometry">
            <mxPoint x="2588" y="1320" as="sourcePoint" />
            <mxPoint x="2475" y="1450" as="targetPoint" />
          </mxGeometry>
        </mxCell>
        <mxCell id="fx9DWvGi49SFvxc28X_w-10" value="Image URL" style="ellipse;whiteSpace=wrap;html=1;align=center;" vertex="1" parent="1">
          <mxGeometry x="2735" y="1150" width="100" height="40" as="geometry" />
        </mxCell>
        <mxCell id="fx9DWvGi49SFvxc28X_w-11" value="" style="endArrow=none;html=1;rounded=0;" edge="1" parent="1" target="fx9DWvGi49SFvxc28X_w-10" source="5PiXKEkqAaMQAXL7R4vB-63">
          <mxGeometry width="50" height="50" relative="1" as="geometry">
            <mxPoint x="2785" y="1152" as="sourcePoint" />
            <mxPoint x="2535" y="1633" as="targetPoint" />
          </mxGeometry>
        </mxCell>
        <mxCell id="fx9DWvGi49SFvxc28X_w-12" value="Image Description" style="ellipse;whiteSpace=wrap;html=1;align=center;" vertex="1" parent="1">
          <mxGeometry x="2915" y="1150" width="100" height="40" as="geometry" />
        </mxCell>
        <mxCell id="fx9DWvGi49SFvxc28X_w-13" value="" style="endArrow=none;html=1;rounded=0;" edge="1" parent="1" target="fx9DWvGi49SFvxc28X_w-12" source="5PiXKEkqAaMQAXL7R4vB-63">
          <mxGeometry width="50" height="50" relative="1" as="geometry">
            <mxPoint x="2885" y="1152" as="sourcePoint" />
            <mxPoint x="2955" y="1533" as="targetPoint" />
          </mxGeometry>
        </mxCell>
        <mxCell id="fx9DWvGi49SFvxc28X_w-14" value="Image URL" style="ellipse;whiteSpace=wrap;html=1;align=center;" vertex="1" parent="1">
          <mxGeometry x="1275" y="1420" width="100" height="40" as="geometry" />
        </mxCell>
        <mxCell id="fx9DWvGi49SFvxc28X_w-15" value="" style="endArrow=none;html=1;rounded=0;" edge="1" parent="1" target="fx9DWvGi49SFvxc28X_w-14" source="65Ibzihye3PbVpg7L_qn-56">
          <mxGeometry width="50" height="50" relative="1" as="geometry">
            <mxPoint x="1525" y="1624.5" as="sourcePoint" />
            <mxPoint x="1275" y="2105.5" as="targetPoint" />
          </mxGeometry>
        </mxCell>
        <mxCell id="fx9DWvGi49SFvxc28X_w-16" value="Image Description" style="ellipse;whiteSpace=wrap;html=1;align=center;" vertex="1" parent="1">
          <mxGeometry x="1315" y="1493" width="100" height="40" as="geometry" />
        </mxCell>
        <mxCell id="fx9DWvGi49SFvxc28X_w-17" value="" style="endArrow=none;html=1;rounded=0;" edge="1" parent="1" target="fx9DWvGi49SFvxc28X_w-16" source="65Ibzihye3PbVpg7L_qn-56">
          <mxGeometry width="50" height="50" relative="1" as="geometry">
            <mxPoint x="1625" y="1624.5" as="sourcePoint" />
            <mxPoint x="1695" y="2005.5" as="targetPoint" />
          </mxGeometry>
        </mxCell>
        <mxCell id="fx9DWvGi49SFvxc28X_w-19" value="Specific Ticket" style="ellipse;whiteSpace=wrap;html=1;align=center;" vertex="1" parent="1">
          <mxGeometry x="1385" y="380" width="100" height="40" as="geometry" />
        </mxCell>
        <mxCell id="fx9DWvGi49SFvxc28X_w-20" value="" style="endArrow=none;html=1;rounded=0;" edge="1" parent="1" target="fx9DWvGi49SFvxc28X_w-19" source="htuNGrUsFo3QCvrp3jUK-22">
          <mxGeometry width="50" height="50" relative="1" as="geometry">
            <mxPoint x="1571" y="250" as="sourcePoint" />
            <mxPoint x="1865" y="300" as="targetPoint" />
          </mxGeometry>
        </mxCell>
        <mxCell id="fx9DWvGi49SFvxc28X_w-21" value="Is_valid" style="ellipse;whiteSpace=wrap;html=1;align=center;" vertex="1" parent="1">
          <mxGeometry x="1635.0000000000002" y="430" width="100" height="40" as="geometry" />
        </mxCell>
        <mxCell id="fx9DWvGi49SFvxc28X_w-22" value="" style="endArrow=none;html=1;rounded=0;" edge="1" parent="1" target="fx9DWvGi49SFvxc28X_w-21" source="htuNGrUsFo3QCvrp3jUK-22">
          <mxGeometry width="50" height="50" relative="1" as="geometry">
            <mxPoint x="1364.9963636363636" y="270" as="sourcePoint" />
            <mxPoint x="1781.3600000000001" y="490" as="targetPoint" />
          </mxGeometry>
        </mxCell>
        <mxCell id="fx9DWvGi49SFvxc28X_w-23" value="Image URL" style="ellipse;whiteSpace=wrap;html=1;align=center;" vertex="1" parent="1">
          <mxGeometry x="1005" y="1860" width="100" height="40" as="geometry" />
        </mxCell>
        <mxCell id="fx9DWvGi49SFvxc28X_w-24" value="" style="endArrow=none;html=1;rounded=0;" edge="1" parent="1" target="fx9DWvGi49SFvxc28X_w-23" source="65Ibzihye3PbVpg7L_qn-77">
          <mxGeometry width="50" height="50" relative="1" as="geometry">
            <mxPoint x="1131" y="1953" as="sourcePoint" />
            <mxPoint x="1215" y="2545.5" as="targetPoint" />
          </mxGeometry>
        </mxCell>
        <mxCell id="fx9DWvGi49SFvxc28X_w-25" value="Image Description" style="ellipse;whiteSpace=wrap;html=1;align=center;" vertex="1" parent="1">
          <mxGeometry x="1205" y="1860" width="100" height="40" as="geometry" />
        </mxCell>
        <mxCell id="fx9DWvGi49SFvxc28X_w-26" value="" style="endArrow=none;html=1;rounded=0;" edge="1" parent="1" target="fx9DWvGi49SFvxc28X_w-25" source="65Ibzihye3PbVpg7L_qn-77">
          <mxGeometry width="50" height="50" relative="1" as="geometry">
            <mxPoint x="1075" y="1895" as="sourcePoint" />
            <mxPoint x="1565" y="2372.5" as="targetPoint" />
          </mxGeometry>
        </mxCell>
        <mxCell id="fx9DWvGi49SFvxc28X_w-27" value="Image URL" style="ellipse;whiteSpace=wrap;html=1;align=center;" vertex="1" parent="1">
          <mxGeometry x="1215" y="1090" width="100" height="40" as="geometry" />
        </mxCell>
        <mxCell id="fx9DWvGi49SFvxc28X_w-28" value="" style="endArrow=none;html=1;rounded=0;" edge="1" parent="1" target="fx9DWvGi49SFvxc28X_w-27" source="65Ibzihye3PbVpg7L_qn-54">
          <mxGeometry width="50" height="50" relative="1" as="geometry">
            <mxPoint x="1172.1428571428573" y="1000" as="sourcePoint" />
            <mxPoint x="1435" y="1785.5" as="targetPoint" />
          </mxGeometry>
        </mxCell>
        <mxCell id="fx9DWvGi49SFvxc28X_w-29" value="Image Description" style="ellipse;whiteSpace=wrap;html=1;align=center;" vertex="1" parent="1">
          <mxGeometry x="1015" y="970" width="100" height="40" as="geometry" />
        </mxCell>
        <mxCell id="fx9DWvGi49SFvxc28X_w-30" value="" style="endArrow=none;html=1;rounded=0;" edge="1" parent="1" target="fx9DWvGi49SFvxc28X_w-29" source="65Ibzihye3PbVpg7L_qn-54">
          <mxGeometry width="50" height="50" relative="1" as="geometry">
            <mxPoint x="1345" y="1320" as="sourcePoint" />
            <mxPoint x="1735" y="1892.5" as="targetPoint" />
          </mxGeometry>
        </mxCell>
        <mxCell id="fx9DWvGi49SFvxc28X_w-35" value="Day" style="ellipse;whiteSpace=wrap;html=1;align=center;" vertex="1" parent="1">
          <mxGeometry x="1225" y="960" width="100" height="40" as="geometry" />
        </mxCell>
        <mxCell id="fx9DWvGi49SFvxc28X_w-36" value="" style="endArrow=none;html=1;rounded=0;" edge="1" parent="1" target="fx9DWvGi49SFvxc28X_w-35" source="65Ibzihye3PbVpg7L_qn-54">
          <mxGeometry width="50" height="50" relative="1" as="geometry">
            <mxPoint x="1232" y="960" as="sourcePoint" />
            <mxPoint x="1475" y="1675.5" as="targetPoint" />
          </mxGeometry>
        </mxCell>
        <mxCell id="fx9DWvGi49SFvxc28X_w-37" value="Starting_date" style="ellipse;whiteSpace=wrap;html=1;align=center;" vertex="1" parent="1">
          <mxGeometry x="405" y="960" width="90" height="40" as="geometry" />
        </mxCell>
        <mxCell id="fx9DWvGi49SFvxc28X_w-38" value="" style="endArrow=none;html=1;rounded=0;" edge="1" parent="1" source="fx9DWvGi49SFvxc28X_w-37" target="65Ibzihye3PbVpg7L_qn-14">
          <mxGeometry width="50" height="50" relative="1" as="geometry">
            <mxPoint x="785" y="895" as="sourcePoint" />
            <mxPoint x="595" y="1110" as="targetPoint" />
          </mxGeometry>
        </mxCell>
        <mxCell id="fx9DWvGi49SFvxc28X_w-39" value="Duration" style="ellipse;whiteSpace=wrap;html=1;align=center;dashed=1;" vertex="1" parent="1">
          <mxGeometry x="85" y="1030" width="100" height="40" as="geometry" />
        </mxCell>
        <mxCell id="fx9DWvGi49SFvxc28X_w-40" value="" style="endArrow=none;html=1;rounded=0;" edge="1" parent="1" source="65Ibzihye3PbVpg7L_qn-14" target="fx9DWvGi49SFvxc28X_w-39">
          <mxGeometry width="50" height="50" relative="1" as="geometry">
            <mxPoint x="232" y="985" as="sourcePoint" />
            <mxPoint x="165" y="1020" as="targetPoint" />
          </mxGeometry>
        </mxCell>
        <mxCell id="fx9DWvGi49SFvxc28X_w-41" value="Image URL" style="ellipse;whiteSpace=wrap;html=1;align=center;" vertex="1" parent="1">
          <mxGeometry x="135" y="1200" width="100" height="40" as="geometry" />
        </mxCell>
        <mxCell id="fx9DWvGi49SFvxc28X_w-42" value="" style="endArrow=none;html=1;rounded=0;" edge="1" parent="1" target="fx9DWvGi49SFvxc28X_w-41" source="65Ibzihye3PbVpg7L_qn-14">
          <mxGeometry width="50" height="50" relative="1" as="geometry">
            <mxPoint x="305" y="1150" as="sourcePoint" />
            <mxPoint x="385" y="1895.5" as="targetPoint" />
          </mxGeometry>
        </mxCell>
        <mxCell id="fx9DWvGi49SFvxc28X_w-43" value="Image Description" style="ellipse;whiteSpace=wrap;html=1;align=center;" vertex="1" parent="1">
          <mxGeometry x="395" y="1200" width="100" height="40" as="geometry" />
        </mxCell>
        <mxCell id="fx9DWvGi49SFvxc28X_w-44" value="" style="endArrow=none;html=1;rounded=0;" edge="1" parent="1" target="fx9DWvGi49SFvxc28X_w-43" source="65Ibzihye3PbVpg7L_qn-14">
          <mxGeometry width="50" height="50" relative="1" as="geometry">
            <mxPoint x="345" y="1150" as="sourcePoint" />
            <mxPoint x="735" y="1722.5" as="targetPoint" />
          </mxGeometry>
        </mxCell>
        <mxCell id="fx9DWvGi49SFvxc28X_w-45" value="longitude" style="ellipse;whiteSpace=wrap;html=1;align=center;" vertex="1" parent="1">
          <mxGeometry x="315" y="720" width="100" height="40" as="geometry" />
        </mxCell>
        <mxCell id="fx9DWvGi49SFvxc28X_w-46" value="" style="endArrow=none;html=1;rounded=0;" edge="1" parent="1" target="fx9DWvGi49SFvxc28X_w-45" source="65Ibzihye3PbVpg7L_qn-35">
          <mxGeometry width="50" height="50" relative="1" as="geometry">
            <mxPoint x="380" y="760" as="sourcePoint" />
            <mxPoint x="420" y="670" as="targetPoint" />
          </mxGeometry>
        </mxCell>
        <mxCell id="fx9DWvGi49SFvxc28X_w-47" value="" style="fontSize=12;html=1;endArrow=ERoneToMany;rounded=0;" edge="1" parent="1" source="pUituZxMnZGrln5jDwbX-4" target="5PiXKEkqAaMQAXL7R4vB-45">
          <mxGeometry width="100" height="100" relative="1" as="geometry">
            <mxPoint x="2095" y="1060" as="sourcePoint" />
            <mxPoint x="1985" y="1060" as="targetPoint" />
          </mxGeometry>
        </mxCell>
        <mxCell id="fx9DWvGi49SFvxc28X_w-48" value="" style="endArrow=none;html=1;rounded=0;" edge="1" parent="1" target="fx9DWvGi49SFvxc28X_w-49" source="65Ibzihye3PbVpg7L_qn-57">
          <mxGeometry width="50" height="50" relative="1" as="geometry">
            <mxPoint x="1845" y="920" as="sourcePoint" />
            <mxPoint x="1985" y="970" as="targetPoint" />
          </mxGeometry>
        </mxCell>
        <mxCell id="fx9DWvGi49SFvxc28X_w-49" value="Break" style="ellipse;whiteSpace=wrap;html=1;align=center;" vertex="1" parent="1">
          <mxGeometry x="1755" y="960" width="100" height="40" as="geometry" />
        </mxCell>
        <mxCell id="fx9DWvGi49SFvxc28X_w-50" value="criteria" style="rounded=1;arcSize=10;whiteSpace=wrap;html=1;align=center;" vertex="1" parent="1">
          <mxGeometry x="735" y="150" width="100" height="40" as="geometry" />
        </mxCell>
        <mxCell id="fx9DWvGi49SFvxc28X_w-51" value="ID" style="ellipse;whiteSpace=wrap;html=1;align=center;fontStyle=4;" vertex="1" parent="1">
          <mxGeometry x="595" y="150" width="100" height="40" as="geometry" />
        </mxCell>
        <mxCell id="fx9DWvGi49SFvxc28X_w-52" value="" style="endArrow=none;html=1;rounded=0;" edge="1" parent="1" target="fx9DWvGi49SFvxc28X_w-51" source="fx9DWvGi49SFvxc28X_w-50">
          <mxGeometry width="50" height="50" relative="1" as="geometry">
            <mxPoint x="835" y="170" as="sourcePoint" />
            <mxPoint x="755" y="110" as="targetPoint" />
          </mxGeometry>
        </mxCell>
        <mxCell id="fx9DWvGi49SFvxc28X_w-53" value="category" style="ellipse;whiteSpace=wrap;html=1;align=center;" vertex="1" parent="1">
          <mxGeometry x="735" y="230" width="100" height="40" as="geometry" />
        </mxCell>
        <mxCell id="fx9DWvGi49SFvxc28X_w-54" value="" style="endArrow=none;html=1;rounded=0;" edge="1" parent="1" source="fx9DWvGi49SFvxc28X_w-53">
          <mxGeometry width="50" height="50" relative="1" as="geometry">
            <mxPoint x="705" y="160" as="sourcePoint" />
            <mxPoint x="785" y="190" as="targetPoint" />
          </mxGeometry>
        </mxCell>
        <mxCell id="fx9DWvGi49SFvxc28X_w-55" value="" style="fontSize=12;html=1;endArrow=ERoneToMany;rounded=0;" edge="1" parent="1" source="fx9DWvGi49SFvxc28X_w-56" target="htuNGrUsFo3QCvrp3jUK-53">
          <mxGeometry width="100" height="100" relative="1" as="geometry">
            <mxPoint x="1020" y="210" as="sourcePoint" />
            <mxPoint x="1070" y="210" as="targetPoint" />
          </mxGeometry>
        </mxCell>
        <mxCell id="fx9DWvGi49SFvxc28X_w-56" value="is" style="shape=rhombus;perimeter=rhombusPerimeter;whiteSpace=wrap;html=1;align=center;" vertex="1" parent="1">
          <mxGeometry x="905" y="140" width="120" height="60" as="geometry" />
        </mxCell>
        <mxCell id="fx9DWvGi49SFvxc28X_w-57" value="" style="endArrow=none;html=1;rounded=0;" edge="1" parent="1" source="fx9DWvGi49SFvxc28X_w-56" target="fx9DWvGi49SFvxc28X_w-50">
          <mxGeometry width="50" height="50" relative="1" as="geometry">
            <mxPoint x="1535" y="260" as="sourcePoint" />
            <mxPoint x="1535" y="200" as="targetPoint" />
          </mxGeometry>
        </mxCell>
        <mxCell id="fx9DWvGi49SFvxc28X_w-58" value="regarding" style="shape=rhombus;perimeter=rhombusPerimeter;whiteSpace=wrap;html=1;align=center;" vertex="1" parent="1">
          <mxGeometry x="1865" y="140" width="120" height="60" as="geometry" />
        </mxCell>
        <mxCell id="fx9DWvGi49SFvxc28X_w-59" value="" style="fontSize=12;html=1;endArrow=ERoneToMany;rounded=0;" edge="1" parent="1" source="fx9DWvGi49SFvxc28X_w-58" target="htuNGrUsFo3QCvrp3jUK-53">
          <mxGeometry width="100" height="100" relative="1" as="geometry">
            <mxPoint x="1465" y="169.41000000000008" as="sourcePoint" />
            <mxPoint x="1545" y="169.41000000000008" as="targetPoint" />
          </mxGeometry>
        </mxCell>
        <mxCell id="fx9DWvGi49SFvxc28X_w-60" value="" style="endArrow=none;html=1;rounded=0;" edge="1" parent="1" source="fx9DWvGi49SFvxc28X_w-58" target="65Ibzihye3PbVpg7L_qn-57">
          <mxGeometry relative="1" as="geometry">
            <mxPoint x="1765" y="710" as="sourcePoint" />
            <mxPoint x="1925" y="710" as="targetPoint" />
          </mxGeometry>
        </mxCell>
        <mxCell id="fx9DWvGi49SFvxc28X_w-62" value="" style="endArrow=none;html=1;rounded=0;" edge="1" parent="1" target="5PiXKEkqAaMQAXL7R4vB-9">
          <mxGeometry relative="1" as="geometry">
            <mxPoint x="445" y="1433" as="sourcePoint" />
            <mxPoint x="445" y="1384" as="targetPoint" />
          </mxGeometry>
        </mxCell>
        <mxCell id="5PiXKEkqAaMQAXL7R4vB-9" value="is" style="shape=rhombus;perimeter=rhombusPerimeter;whiteSpace=wrap;html=1;align=center;" parent="1" vertex="1">
          <mxGeometry x="385" y="1410" width="120" height="60" as="geometry" />
        </mxCell>
        <mxCell id="fx9DWvGi49SFvxc28X_w-64" value="" style="endArrow=none;html=1;rounded=0;" edge="1" parent="1" source="fx9DWvGi49SFvxc28X_w-65" target="65Ibzihye3PbVpg7L_qn-93">
          <mxGeometry width="50" height="50" relative="1" as="geometry">
            <mxPoint x="395" y="1720" as="sourcePoint" />
            <mxPoint x="481" y="1550" as="targetPoint" />
          </mxGeometry>
        </mxCell>
        <mxCell id="fx9DWvGi49SFvxc28X_w-65" value="Last name" style="ellipse;whiteSpace=wrap;html=1;align=center;" vertex="1" parent="1">
          <mxGeometry x="521" y="1580" width="100" height="40" as="geometry" />
        </mxCell>
        <mxCell id="fx9DWvGi49SFvxc28X_w-66" value="" style="endArrow=none;html=1;rounded=0;" edge="1" parent="1" target="fx9DWvGi49SFvxc28X_w-67" source="5PiXKEkqAaMQAXL7R4vB-104">
          <mxGeometry width="50" height="50" relative="1" as="geometry">
            <mxPoint x="1142" y="840" as="sourcePoint" />
            <mxPoint x="1105" y="890" as="targetPoint" />
          </mxGeometry>
        </mxCell>
        <mxCell id="fx9DWvGi49SFvxc28X_w-67" value="For sale" style="ellipse;whiteSpace=wrap;html=1;align=center;" vertex="1" parent="1">
          <mxGeometry x="975" y="870" width="100" height="40" as="geometry" />
        </mxCell>
        <mxCell id="fx9DWvGi49SFvxc28X_w-68" value="" style="endArrow=none;html=1;rounded=0;" edge="1" parent="1" target="fx9DWvGi49SFvxc28X_w-69" source="5PiXKEkqAaMQAXL7R4vB-104">
          <mxGeometry width="50" height="50" relative="1" as="geometry">
            <mxPoint x="1413.5" y="830" as="sourcePoint" />
            <mxPoint x="1376.5" y="880" as="targetPoint" />
          </mxGeometry>
        </mxCell>
        <mxCell id="fx9DWvGi49SFvxc28X_w-69" value="EAN-13" style="ellipse;whiteSpace=wrap;html=1;align=center;" vertex="1" parent="1">
          <mxGeometry x="1236.5" y="870" width="100" height="40" as="geometry" />
        </mxCell>
      </root>
    </mxGraphModel>
  </diagram>
</mxfile>
